<svg xmlns="http://www.w3.org/2000/svg" viewBox="0 0 520.92 546.33"><defs><style>.cls-1{fill:#fff;}.cls-2{fill:#8fa7d7;}.cls-3{fill:#e5e6eb;}.cls-4{fill:#2e5ba7;}.cls-5{fill:#272a59;}.cls-6{fill:#fbbd0f;}.cls-7{fill:#ec7f96;}.cls-8{fill:#dfa718;}.cls-9{fill:#f5bcc7;}.cls-10{fill:#fccf48;}.cls-11{fill:#fae281;}</style></defs><g id="Capa_2" data-name="Capa 2"><g id="Capa_1-2" data-name="Capa 1"><rect class="cls-1" x="91.27" y="246.95" width="24.52" height="21.53" transform="translate(93.42 -19.83) rotate(19.8)"/><path class="cls-1" d="M108.26,334.22c-10.27,6.27-49.55,3-52.74.75s-3.18-65.14-3.18-65.14a28,28,0,0,1,28-28h0a28,28,0,0,1,28,28S112.82,327.24,108.26,334.22Z"/><path class="cls-1" d="M372.6,287.31h95a35,35,0,0,1,35,35V499.67a0,0,0,0,1,0,0h-130a0,0,0,0,1,0,0V287.31A0,0,0,0,1,372.6,287.31Z"/><rect class="cls-1" x="124.25" y="156.56" width="283.75" height="389.77"/><path class="cls-2" d="M83.51,207.65c1.85-1.58,1-3.73,1-5.61.06-20.28,0-40.56,0-60.85,0-2,.21-4,.32-5.95,1.16,0,2.32.12,3.48.12q149.43,0,298.85,0c1.6,0,3.37.52,4.71-.93,4.37,6.24,8.65,12.58,14.2,17.87C408,154,408,156,408,158.22q0,45.89,0,91.78c0,6.9-2.48,10.21-9.2,11.49-8.87,1.68-17.88.39-26.82.69-.06-22.88-.24-45.75-.12-68.63.05-9.6-2.18-18.32-8-26,2.81-.06,5.63,0,8.43-.19,4-.3,7.47-1.56,8.83-5.89,3-8.26-.83-14.08-9.4-14.09q-56.12-.06-112.24,0-68.85,0-137.69,0c-8.78,0-13,6.29-9.66,14.18a7.45,7.45,0,0,0,7,5.53c8.15.35,16.32.12,24.81.12-4.21-5.81-8-8.14-18.38-11.5H343.9c7.36,2.21,14.26,5.19,19.08,11.59-9.8.05-19.59.14-29.39.14q-90.93,0-181.87,0h-6.09c2.86,5.77,6.42,10.8,7.07,17a73.7,73.7,0,0,1,.6,7.42q.09,32.64.21,65.28a40.92,40.92,0,0,1-4.9,2.18c-11.29,3.41-22.3,1.72-33.18-2,2-4.29.64-6.39-4-7.38-4.28-.91-8.37-2.71-12.56-4.1-1.17-.39-2.45-1.33-3.37.43l.07-.06c-3.65.15-6.19-3.24-9.85-3.08,1.77-4.5,2.08-9.2,1.95-14,1.51.2,2.89.39,3.65-1.52,3.35-8.43,3-10-3.9-16.28C86.05,210.2,84.8,208.91,83.51,207.65Z"/><path class="cls-3" d="M372,262.18c8.94-.3,18,1,26.82-.69,6.72-1.28,9.19-4.59,9.2-11.49q0-45.88,0-91.78c0-2.18,0-4.2-1.83-5.93-5.55-5.29-9.83-11.63-14.2-17.87-5-8.62-9.66-17.45-12.53-27-1.23-4.1-3.22-5.13-7.32-5.12q-114.87.18-229.72.08c-2,0-4-.11-6-.17,0-10,.28-20-.15-29.9-.2-4.65,1.38-5.34,5.55-5.32q76.48.21,153,.09c23.58,0,47.17-.1,70.75.09,3.94,0,4.69-1.14,4.32-4.78-.75-7.26-.92-14.57-1.52-21.85-.36-4.28-.11-7.74,5.13-8.94a10.85,10.85,0,0,0,6.23-3.78c4.91-3.5,8.46-7.88,9.31-14.07.56-4.07,2.9-6,6.92-7.14A153.76,153.76,0,0,1,437.41,0a140.67,140.67,0,0,1,48.22,7.84c1.61.57,2.86,1.27,3.05,3.39,1,10.86,7.82,17.16,17.31,21,2.56,1,3.65,2.2,3.65,5,.07,31.2-4.6,61.42-19.13,89.43-11.3,21.77-27.63,38.34-51.16,46.91-7.54-2.22-14.29-6.18-21.38-10.81V288.07c-14.1,0-28.19,0-42.29.2-3.23,0-3.88-1.37-3.82-4.2C372,276.78,371.94,269.48,372,262.18ZM419.6,150.56l1.12,1.17c12.16,11.07,18.61,12.29,29.37,5.55a4.11,4.11,0,0,0,.65-.72l1.2-1-.11.15a2,2,0,0,0,2-1.21l-.07.05,1.16-1-.09.13a4.31,4.31,0,0,0,3-2.14l-.08.05,1.1-1.08-.09.1,1.14-1-.08.13c1.29-.11,2-1.1,2.85-1.88,12-11,20.28-24.48,26.11-39.54,7.68-19.84,10.95-40.54,12.09-61.71.26-4.84-.59-7.67-5.14-10.16a29,29,0,0,1-14.38-18.32,5.38,5.38,0,0,0-4.29-4.1,136.39,136.39,0,0,0-76.15.26c-1.61.47-3.15.85-3.65,2.86-2.46,9.88-9,16.43-17.63,21.18A4.44,4.44,0,0,0,377,43c1.16,23,4.25,45.67,13.07,67.12,4.74,11.51,10.49,22.56,19.71,31.33a15.09,15.09,0,0,0,4.82,5l1.15,1,0,0a2,2,0,0,0,1.84,1.31l-.09-.11c.05.71.5,1,1.14,1l-.1-.11a1.15,1.15,0,0,0,1.14,1.06Z"/><path class="cls-4" d="M217.13,319.09a2.38,2.38,0,0,0,0-.8l2.1-8.15a36.61,36.61,0,0,1,5-8.95c1.55-2.36,4.29-3.79,5.27-6.62,5.3-1.32,9.76-4.67,15.27-5.74,20.16-3.91,40.3,12.34,40.33,33.08q.1,78.51,0,157a7,7,0,0,1-1.45.31q-42.61,0-85.23,0c-1.18,0-2.81.6-3.2-1.39,12.05-3.49,19-11.57,21.23-23.79,1.45-2.1.88-4.49.89-6.76q.06-45,0-90C217.34,344.6,217.21,331.84,217.13,319.09Z"/><path class="cls-5" d="M379.72,27.81a10.85,10.85,0,0,1-6.23,3.78c-5.24,1.2-5.49,4.66-5.13,8.94.6,7.28.77,14.59,1.52,21.85.37,3.64-.38,4.82-4.32,4.78-23.58-.19-47.17-.09-70.75-.09q-76.5,0-153-.09c-4.17,0-5.75.67-5.55,5.32.43,10,.15,19.93.15,29.91-7,0-14.12,1.13-21.12-.6,0-15.3-.25-30.6,0-45.9a28.17,28.17,0,0,1,28-28q117.48-.13,235,0C378.72,27.7,379.22,27.77,379.72,27.81ZM277.64,44.54H222.81c-2.34,0-4.57-.38-4.64,3.35s1.82,3.89,4.63,3.89q54.33-.08,108.65,0c2.36,0,4.56.38,4.63-3.35s-1.78-3.91-4.62-3.9C313.52,44.57,295.58,44.54,277.64,44.54Z"/><path class="cls-4" d="M115.31,101.61c7,1.73,14.08.6,21.12.6,2,.05,4,.16,6,.16q114.85,0,229.72-.08c4.1,0,6.09,1,7.32,5.12,2.87,9.56,7.53,18.39,12.53,27-1.34,1.45-3.11.93-4.71.93q-149.42,0-298.85,0c-1.16,0-2.32-.08-3.48-.12-.08-7.11-.41-14.23-.17-21.33s5.1-11.17,12.36-11.55C103.18,102,109.31,103.34,115.31,101.61Zm16.13,17c-.19-2.72-1.56-4.22-4.4-4.25s-4.42,1.56-4.52,4.21a4.16,4.16,0,0,0,4.66,4.63C129.59,123.09,131.58,121.64,131.44,118.63ZM110.38,123c2.16-.5,4.07-1.22,4-4.08s-1.33-4.22-4.21-4.32-4,1.73-4.16,4C105.86,121.21,107.71,122.65,110.38,123Zm37.83-4.41c-.69-2.27-1.57-4.36-4.65-4.07-2.78.26-4.21,1.77-4.15,4.55a3.81,3.81,0,0,0,4.18,4A4.6,4.6,0,0,0,148.21,118.57Z"/><path class="cls-4" d="M508.63,499.67c3.75.64,8.73-1.56,11,.95,2.42,2.68.65,7.62.75,11.57.14,5.48.17,11,0,16.47-.3,10-7.61,17.6-17.36,17.61-64.43.1-128.86.05-195,.05,11.72-4.66,13.53-13.1,13-22.92-.33-6.63.06-13.3-.12-19.95-.08-2.77.65-4.06,3.57-3.64a21.28,21.28,0,0,0,3,0H496.62c2,0,4-.1,6-.16Z"/><path class="cls-5" d="M285.06,493.9c0,10.29.38,20.6-.07,30.87-.42,9.57,2.55,16.85,11.36,21.24h-.44l.87.32-126.7-.11c1.55-5.35.57-10.84.82-16.26.19-4-1.16-8.93.75-11.61,2.14-3,7.42-1,11.31-1,3.61,0,4.48-1.32,3.29-4.5q.21-9.6.43-19.2l26.83.07Z"/><path class="cls-5" d="M168.59,404a67.57,67.57,0,0,1,.76,6.91c0,4.62,1.88,7.56,6.7,8.15,1.23,1.16,2.72.91,4.18.8,2.58-.19,4.46.74,5.34,3.3-1.32,1.53-3.08.75-4.63.79-5.93.14-11.86.14-17.78.2a.88.88,0,0,0-.9,0c-1.45-.24-3.34-.35-2.53-2.5,2.07-5.53-.51-10.46-1.68-15.58-.34-1.33-.68-2.66-1-4-.77-1.92-.32-4.2-1.71-5.94-1.6-6.36-2.32-12.95-4.88-19.07l-1.17-3.87a5.26,5.26,0,0,0-.82-4.25c-1.34-6.71-2.53-13.45-5.3-19.78-3.35-1.65-7-.46-10.46-1.16a19.89,19.89,0,0,1-1.23-9.07c3.61.36,7.22,1.05,10.82,1,2.61-.06,7,2.27,7.51-1.92s-4.17-3.11-6.75-3.8c-10.07-2.72-20.56-4.18-29.58-10,2.51,0,1.76-1.92,1.76-3.21q0-24.32-.07-48.63c7,.12,13.79,3.59,21.27.55v5.88c0,15,.08,29.94-.07,44.91,0,2.94.81,4.16,3.76,4.42,4.46.39,8.88,1.15,13.31,1.76,7.75,2.33,7.28,9.13,8.23,15.16l.72,4.06a154.94,154.94,0,0,0,3,24.08C165.14,383.58,168.13,393.65,168.59,404Z"/><path class="cls-5" d="M418,288.07V162.76c7.09,4.63,13.84,8.59,21.38,10.81q0,55.26.1,110.52c0,3.13-.63,4.41-4.07,4.21C429.59,288,423.77,288.12,418,288.07Z"/><path class="cls-6" d="M4.72,473.92c-.88-14.73.87-29,6.84-42.67a15.39,15.39,0,0,0,2.17-8.92c-.19-5.42-.08-10.85-.09-16.28l10.1.07v6c2.39-2.33,4.57-3.36,4.8-6,2.45-.36,3.78-2.13,5-4l5.87-4.1c-5.57.78-4.79-2.15-4.8-4.55,0-5.13,0-10.25,0-15.38,3.11.33,6-1.7,9.14-.87,0,4.32-.14,8.64,0,13,0,1.48-1,4.19,1.1,4.21,2.24,0,4-1.91,3.83-4.85-.21-3.81-.06-7.64-.07-11.46l9.12-.9c0,2.47-.11,4.95-.05,7.42,0,1.36-.47,3.36,1.91,3.15a3,3,0,0,0,3-3.24c0-2.14,0-4.29,0-6.43l9.12-.9a28.81,28.81,0,0,0,0,3.94c.14,1.25-.84,3.4,1.47,3.38,2,0,2.59-1.67,2.47-3.56-.07-1,0-2,0-2.95,3.35-.07,6.78.71,10-.83,0,1.13,0,2.27,0,3.4s.28,2.29,1.8,2.38c1.8.1,2.12-1.09,2.14-2.52l.06-2.43c3.35-.07,6.78.71,10-.83a3.53,3.53,0,0,0,0,1c.61,2.25-1.68,6.43,1.77,6.48,4,.06,1.43-4.29,2.18-6.58,3.37-.15,6.81.68,10-.87,0,3.64,0,7.29-.08,10.93-4.92-1.85-6.47,1.58-8,5.09a7.23,7.23,0,0,0-.93,0C91.1,390,77.66,389.89,64.4,394c-18,5.53-31.65,16.57-41.8,32.43C8.11,449.07,8.41,483,23.74,504.89a4.06,4.06,0,0,0,.06.85c-1.56,1.77-2.2,4.33-4.61,5.37-1-1.5-2.13-3-3.1-4.51C9.81,496.57,6.78,485.42,4.72,473.92Z"/><path class="cls-5" d="M61.7,344.78c-3.05-2.51-6-5.11-6.18-9.81,15.92,4.79,30.89,4,44.94-4.87,9.25,3.34,18.42,6.94,28.28,8.14a19.23,19.23,0,0,1,1.79,6.15c.36,3.38.3,6.91,2,10q1.77,10,3.52,20.05c-1.31,1.43-.16,2.47.56,3.58-.06,6.71,1.32,13.28,2,19.91.32,1.36.63,2.72.94,4.07.57,4.4,1.15,8.8,1.68,13.21.22,1.78,1.33,2.52,2.93,2.81l2,1.19c2.27,1.33,4.9.37,7.24,1.17,1.4.47,3.09.93,2.88,2.83s-2,1.18-3.16,1.3c-1.62.18-3.26.22-4.9.31a10.9,10.9,0,0,0-5.94.18c-1-.31-1.89-1.32-3.12-.66a31,31,0,0,0-4.4-.18c-3.17.31-4.8-.58-3.48-4s-.57-6.21-1.92-9.09a34.82,34.82,0,0,0-3-10.08,17.76,17.76,0,0,0-2.21-8c-.55-5.47-2.86-10.51-4-15.85-.46-1.16-.91-2.31-1.36-3.47.25-.61.26-1.15-.49-1.42-.23-.75.81-1.47,0-2.22-.9-6.4-3.27-12.41-4.83-18.63-.29-1.18-.84-1.72-2-1.59-1.3-.87-2.75-.5-4.15-.51l-8.71-.41c-1.77-.69-3.54-1.37-5.26.11-3,.06-6,.29-8.91-.94-.69-1.43-1.89-.68-2.91-.68C75,346.74,68.2,346.8,61.7,344.78Z"/><path class="cls-7" d="M136.27,274c-11.33.83-14.77-.3-21.13-1-2.51-.42-5.2-1.23-3.54-5.14,1.45-3.42,2.56-7,3.83-10.48,10.88,3.68,21.89,5.37,33.18,2a40.92,40.92,0,0,0,4.9-2.18c10.22-3.52,18.55-10.12,27-16.59,1.58-1.21,3.17-2.41,4.66-3.72,1.87-1.64,3.84-4.14,6.29-1.59s-.85,3.93-2.07,5.66c-2.42,2.2-5,4.23-6.73,7.1-8.38,8-17.07,15.61-27.82,20.4C152.72,269.32,147.59,273.17,136.27,274Z"/><path class="cls-6" d="M148.29,424.86c1.64-.09,3.28-.13,4.9-.31,1.17-.12,2.95.67,3.16-1.3s-1.48-2.36-2.88-2.83c-2.34-.8-5,.16-7.24-1.17l-2-1.19c1.65-1.11,2.16-3.4,4.21-4.11l5,4.29v-11.3c1.63.08,3.26.16,4.68-.88,1.17,5.12,3.75,10.05,1.68,15.58-.81,2.15,1.08,2.26,2.53,2.5l.51,2.73c.12,1.37.23,2.75.35,4.12-1.12,0-2.51-.21-2.57,1.45a2.3,2.3,0,0,0,2.52,2.42c3.42.11,6.85.08,10.28.1,0,5.65-.09,11.31,0,17,0,2.52-.36,4.36-3.46,4-3.53-.42-3.81,1.67-3.38,4.33.29,1.17.58,2.35.88,3.52-.17,8.26-1.09,16.4-4,24.2l-1,4.83c-3.85,8.5-7.86,16.91-14.06,24l-3,3.92c-10.92,10.2-22.94,18.52-37.64,22.45-3.12.83-6.49.85-9.38,2.54H74.61c-5.5-1.33-11-3.4-16.51-3.75-4.42-.27-7.67-1-9.48-5.2,1.84-1.32,3.83-2.52,4-5.16l1.89,0c15.11,7.53,30.93,9,47.3,5.49,17.36-3.73,31.44-13,42.35-26.72a71.66,71.66,0,0,0,15.76-46.07A75.37,75.37,0,0,0,148.29,424.86Z"/><path class="cls-3" d="M285.06,493.9l-71.55-.22-26.83-.07a3.31,3.31,0,0,0-.28-.82c.93-3.73-.65-5-4.3-4.7a68,68,0,0,1-7.27-.17c-.09-1-.17-2-.25-3l.69-6c6.66-.1,13.36.52,19.95-1,.39,2,2,1.39,3.2,1.39q42.62,0,85.23,0a7,7,0,0,0,1.45-.31Q285.08,486.41,285.06,493.9Z"/><path class="cls-2" d="M185.57,423.15c-.88-2.56-2.76-3.49-5.34-3.3-1.46.11-2.95.36-4.18-.8,11.47-4.42,23.4-1.56,35.11-2,4.61-.17,5.36-1.65,5.44-5.78.09-4.45-1.27-5.7-5.65-5.54-9.3.33-18.62,0-27.93.14-2.74,0-3.83-.76-3.8-3.67s1.6-3.12,3.82-3.11c9.31.05,18.63-.21,27.93.13,4.38.15,5.75-1.07,5.63-5.53-.11-4.05-.66-5.94-5.4-5.73-9.29.41-18.62.08-27.93.14-2.41,0-4.09-.09-4.07-3.34,0-3,1.35-3.56,4-3.54,9.64.1,19.29-.21,28.92.14,4.84.18,4.38-2.57,4.41-5.67s.31-5.78-4.46-5.59c-9.63.36-19.29.08-28.93.12-2.17,0-3.84,0-3.86-3.05S180.76,364,183,364c9.14.06,18.29-.1,27.43.08,4,.08,6.24-.17,6.25-5.39,0-5.37-2.19-5.81-6.49-5.68-9,.27-18,0-26.94.11-2.44,0-4.07-.15-4.05-3.36s1.39-3.55,4-3.52c9.64.09,19.29-.22,28.92.13,5.37.2,4.19-3.17,4.38-6.18.22-3.23-.12-5.24-4.37-5.08-9,.35-17.95.23-26.92,0-2.14-.05-5.79,1.94-5.88-2.86-.09-5.22,3.89-3,6.11-3.08,8.47-.25,17-.4,25.43,0,4.72.23,6.25-1.36,5.65-5.82-.19-1.43-.37-3,.64-4.33.08,12.75.21,25.51.22,38.26q.06,45,0,90c0,2.27.56,4.66-.89,6.76,0-9.1-.07-18.2,0-27.3,0-2.69-.68-3.88-3.61-3.82C203.78,423.14,194.67,423.1,185.57,423.15Z"/><path class="cls-3" d="M508.63,499.67h-6c0-58.18.23-116.36-.09-174.54-.1-19.05-9.56-32.1-28.7-36.38,8.05-1.91,24.15,5.34,30.06,16.81a42,42,0,0,1,4.73,19.57Q508.64,412.4,508.63,499.67Z"/><path class="cls-8" d="M98.36,545.72c2.89-1.69,6.26-1.71,9.38-2.54,14.7-3.93,26.72-12.25,37.64-22.45,3.23,1.31,6.63,1,10,1.08-1.26,1.74-2.2,3.89-3.83,5.14-4,3-4.35,6.94-4.26,11.45.09,4.14,2.78,3.31,5.13,3.35s5.12.62,5-3.46c-.18-5.8,0-11.61,0-17.41l3.83,0c0,5.8.2,11.61,0,17.41-.11,3.62,2.09,3.43,4.53,3.45s4.61.11,4.45-3.49c-.25-5.79-.15-11.6-.2-17.4.69-2.95-.3-4.2-3.49-4.11-6.08.17-12.17,0-18.25,0,6.2-7.13,10.21-15.54,14.06-24l6,.14c-.52,5.32-2.79,10.11-4.57,15-.51,1.42-2.43,3.28-.48,4.34,2.46,1.34,5.5.6,8.26.38,2.08-.17,1.75-2.09,1.75-3.52,0-5.45,0-10.9,0-16.35h3c0,3.44,0,6.87,0,10.31,0,9.77,0,9.77,9.92,9.69,1.19,3.18.32,4.47-3.29,4.5-3.89,0-9.17-2-11.31,1-1.91,2.68-.56,7.65-.75,11.61-.25,5.42.73,10.91-.82,16.26ZM136,541.57c8,.41,8.09.32,6.62-5.1A24.2,24.2,0,0,0,136,541.57Z"/><path class="cls-8" d="M107.43,349.3c1.4,0,2.85-.36,4.15.51,0,4.47-.11,8.93-.13,13.4,0,6.86,0,6.86,7,6.82.79.75-.25,1.47,0,2.21a2.13,2.13,0,0,1,0,.94l-104.23-.07.27-3a23.39,23.39,0,0,1,3.45,0c4.39.62,6.23-.88,5.84-5.61-.42-5.06-.06-10.19,0-15.29l3.91-.09c0,5.63.12,11.25,0,16.87-.11,4.36,2.76,4,5.67,4.14,3.08.16,4.55-.65,4.41-4.1-.23-5.61,0-11.25,0-16.87l3.92,0c0,5.77.18,11.55,0,17.31-.15,3.89,2.21,3.73,4.8,3.63s5.48.8,5.31-3.61c-.21-5.76,0-11.54,0-17.31l3.92,0c0,5.77.18,11.55,0,17.31-.15,3.9,2.22,3.73,4.81,3.64s5.46.77,5.29-3.63c-.22-5.77,0-11.55,0-17.32h3.94c0,5.77.18,11.55,0,17.31-.15,3.9,2.22,3.73,4.81,3.64s5.46.77,5.29-3.63c-.22-5.77,0-11.55,0-17.32l1.88-.11c2.37.38,2.07,2.2,2.07,3.84,0,4.49.2,9-.05,13.46-.22,3.83,2,3.91,4.73,3.76,2.51-.14,5.54.85,5.37-3.62-.23-5.81-.09-11.63-.1-17.44,1.72-1.48,3.49-.8,5.26-.11-2.71,5.7-.56,11.73-1.22,17.57-.5,4.48,2.82,3.44,5.32,3.6,2.74.17,4.89,0,4.72-3.8C107.28,360.62,107.44,355,107.43,349.3Z"/><path class="cls-9" d="M128.74,338.24c-9.86-1.2-19-4.8-28.28-8.14-11.06-7.37-20.3-16.44-26.81-28.17-2.53-4.57-2.67-4.6,2.76-5.82a5.75,5.75,0,0,0,5.13-1.94l-.05,0,5-1.12c4.09,12,10.38,22.22,22.16,28.13l1.48,1.63,3.36,1.35c9,5.81,19.51,7.27,29.58,10,2.58.69,7.27-.31,6.75,3.8s-4.9,1.86-7.51,1.92c-3.6.08-7.21-.61-10.82-1A3,3,0,0,0,128.74,338.24Z"/><path class="cls-2" d="M235.74,230.24q-25.91,0-51.8,0c-2.22,0-4.66.71-4.74-3.17-.08-4.08,2.42-3.54,4.9-3.54H287.21c2.4,0,5-.7,5,3.45s-2.9,3.22-5.15,3.23C269.94,230.26,252.84,230.24,235.74,230.24Z"/><path class="cls-2" d="M367.91,352.18H419.3c2.29,0,4.67-.55,4.69,3.26,0,3.62-2.05,3.47-4.52,3.47q-51.89,0-103.77,0c-2.31,0-4.63.52-4.68-3.27,0-4.17,2.6-3.43,5-3.44Z"/><path class="cls-2" d="M366.41,387.23h49.87c2.33,0,4.61-.45,4.63,3.31s-2.09,3.42-4.52,3.42q-50.36,0-100.73,0c-2.31,0-4.63.49-4.64-3.3s2.09-3.44,4.53-3.43Q341,387.25,366.41,387.23Z"/><path class="cls-2" d="M364.9,440h49.37c2.3,0,4.63-.53,4.65,3.28,0,3.64-2.05,3.45-4.51,3.45q-49.37,0-98.73,0c-2.32,0-4.64.48-4.66-3.3s2.07-3.44,4.52-3.44Q340.22,440.06,364.9,440Z"/><path class="cls-2" d="M359.12,429q-21.94,0-43.88,0c-2.29,0-4.17.13-4.22-3.22s1.7-3.65,4.34-3.64q44.13.08,88.26,0c2.31,0,4.15-.07,4.22,3.25.06,3.48-1.72,3.63-4.35,3.62C388.7,429,373.91,429,359.12,429Z"/><path class="cls-2" d="M233.7,265.28c-16.63,0-33.26,0-49.89,0-1.94,0-4.44.93-4.58-2.76s2.2-3.35,4.55-3.35H284.56c2.17,0,4.36-.38,4.38,3.07s-2.19,3.06-4.36,3.06Z"/><path class="cls-8" d="M48.62,536.78c1.81,4.24,5.06,4.93,9.48,5.2,5.56.35,11,2.42,16.51,3.75-21,.06-42.07.08-63.1.24-3.54,0-3.14-2-2.77-4.2a39.07,39.07,0,0,1,5,0c3.95.52,5.27-1,5-5-.31-5.29-.05-10.61,0-15.92,4.07.67,8.51-.11,11.86,3.34A57.19,57.19,0,0,0,48.62,536.78Zm-26-10.07c0,3.75,0,7.49,0,11.23,0,1.58-.39,3.69,2.07,3.71s5.62,1.29,7.42-1c1.28-1.61.79-4.09-.94-5.87C28.59,532.11,25.68,529.67,22.64,526.71Z"/><path class="cls-5" d="M83.51,207.65c1.29,1.26,2.54,2.55,3.87,3.76,6.89,6.28,7.25,7.85,3.9,16.28-.76,1.91-2.14,1.72-3.65,1.52-5.34-3.65-8.73-3.71-12.61,0-1.34,1.28-1.76.46-2.62-.5-2-2.22-4.44-2.37-6.54-.36-2.38,2.29-.39,4.18,1.06,6-2,1.87-3.66,1-4.93-.82-1.81-2.59-2.05-5.85.06-7.87,3.36-3.21,4.29-5.91,2-10.28-1.42-2.69,1.79-5.83,5.41-6,3.19-.15,6.5,1,9.09-2.4C79.77,205.34,81.91,206.71,83.51,207.65Z"/><path class="cls-2" d="M349.05,481.79c-11.28,0-22.57,0-33.85,0-2.34,0-4.13,0-4.18-3.27-.06-3.47,1.73-3.62,4.35-3.61q34.1.07,68.2,0c2.34,0,4.13,0,4.19,3.27.06,3.47-1.73,3.63-4.36,3.61C372,481.75,360.5,481.79,349.05,481.79Z"/><path class="cls-10" d="M14.21,373.11l104.23.07a.72.72,0,0,0,.48.49c.45,1.16.9,2.31,1.36,3.47l-2.82.88c-1.07-1.38-2.57-.81-3.93-.87-3.24,1.55-6.68.72-10,.87-1.06-1.38-2.56-.81-3.92-.87-3.23,1.54-6.66.76-10,.83-1.1-1.31-2.59-.79-4-.83-3.23,1.54-6.66.76-10,.83-1.1-1.31-2.58-.79-3.94-.81l-9.12.9c-1.37-1.61-3.2-.79-4.85-.9l-9.12.9c-1.37-1.61-3.18-.81-4.84-.86-3.15-.83-6,1.2-9.14.87a6.58,6.58,0,0,0-4.82-.88c-3.14-.85-6,1.24-9.1.84-1.32-1.36-2.67-1.3-4-.07l-9.87.11C5.35,370.58,11.61,374.58,14.21,373.11Z"/><path class="cls-2" d="M182.61,248c1.7-2.87,4.31-4.9,6.73-7.1,10.46.13,20.91.3,31.37.36,10,.06,19.94,0,29.91,0,2.26,0,4.65-.63,4.66,3.23,0,3.5-1.77,3.62-4.38,3.61Q216.76,248,182.61,248Z"/><path class="cls-2" d="M349.09,376.17c-11.29,0-22.58,0-33.87,0-2.31,0-4.24.06-4.17-3.26.06-3.13,2-2.89,4-2.89q34.36,0,68.73,0c2.12,0,3.91-.07,3.94,3,0,3.35-2,3.18-4.27,3.18Q366.28,376.15,349.09,376.17Z"/><path class="cls-2" d="M211.34,276.31c9.3,0,18.59,0,27.89,0,2.37,0,4.15,0,4.15,3.31,0,3.11-1.53,3.47-4,3.46q-28.12-.09-56.26,0c-2.66,0-3.9-.63-3.86-3.6s1.44-3.2,3.74-3.18C192.42,276.35,201.88,276.31,211.34,276.31Z"/><path class="cls-9" d="M66.92,234.33c-1.45-1.81-3.44-3.7-1.06-6,2.1-2,4.55-1.86,6.54.36.86,1,1.28,1.78,2.62.5,3.88-3.7,7.27-3.64,12.61,0,.13,4.76-.18,9.46-1.95,14-4.82.22-2.73,3.94-3.11,6.33-.35,2.17.58,4.57-2.45,5.83s-6.08,1.07-8.3-1.12c-2.51-2.48-1.39-5.88-.74-8.87a12.52,12.52,0,0,0-1.28-9.54A3,3,0,0,0,66.92,234.33Z"/><path class="cls-2" d="M343.21,411.11c-9.14,0-18.29,0-27.44,0-2.23,0-4.77.67-4.71-3.19.05-3.59,2.42-2.91,4.46-2.91q27.94,0,55.88,0c2,0,4.41-.69,4.47,2.9.06,3.86-2.48,3.2-4.72,3.2C361.84,411.13,352.53,411.11,343.21,411.11Z"/><path class="cls-2" d="M341.29,335c8.79,0,17.59,0,26.38,0,2.43,0,4.18.17,4.08,3.38s-2.15,2.77-4.11,2.77q-26.38,0-52.77,0c-2.21,0-3.83-.12-3.82-3.08s1.65-3.1,3.85-3.09C323.7,335,332.49,335,341.29,335Z"/><path class="cls-2" d="M208.74,212.46c-8.62,0-17.25-.05-25.87,0-2.4,0-3.68-.49-3.63-3.28,0-2.63,1.37-2.91,3.46-2.9q26.63.06,53.25,0c2.15,0,3.36.44,3.4,3,.05,2.88-1.45,3.2-3.73,3.19C226.66,212.43,217.7,212.46,208.74,212.46Z"/><path class="cls-10" d="M48.62,536.78a57.19,57.19,0,0,1-18.07-12.56c-3.35-3.45-7.79-2.67-11.86-3.34l-9.9,0c-.6-2.54-.1-4.14,3-3.9a41.65,41.65,0,0,0,4.86-.14c1.87.16,3.76.58,5.65-.31-.27-2.31-2.49-3.39-3.13-5.37,2.41-1,3-3.6,4.6-5.37,3.95,4.41,7.28,9.34,11.66,13.42,5.22,4.87,11.69,7.93,17.13,12.46C52.45,534.26,50.46,535.46,48.62,536.78Z"/><path class="cls-8" d="M16.62,378c1.36-1.23,2.71-1.29,4,.07,0,5.44.14,10.88-.06,16.31-.12,3.3,1.53,3.84,4.25,3.72,2.49-.12,5,.4,4.88-3.58-.19-5.75,0-11.53,0-17.29a6.58,6.58,0,0,1,4.82.88c0,5.13,0,10.25,0,15.38,0,2.4-.77,5.33,4.8,4.55l-5.87,4.1-27-.13L6.75,398a25.75,25.75,0,0,1,3.93,0c4.61.69,6.52-.93,6.08-5.83C16.34,387.52,16.64,382.73,16.62,378Z"/><path class="cls-2" d="M229.47,294.57c-1,2.83-3.72,4.26-5.27,6.62-1.51-1.57-3.45-.83-5.18-.84q-18.15-.11-36.31,0c-2.09,0-3.58-.29-3.43-2.92.1-1.76,0-3.36,2.51-3.32C197.68,294.37,213.58,293.49,229.47,294.57Z"/><path class="cls-4" d="M381.13,161.43c-1.36,4.33-4.83,5.59-8.83,5.89-2.8.21-5.62.13-8.43.19a5.33,5.33,0,0,1-.89-.25c-4.82-6.4-11.72-9.38-19.08-11.59,9.64-.07,19.28-.24,28.91-.17A8.35,8.35,0,0,1,381.13,161.43Z"/><path class="cls-2" d="M219.19,310.14l-2.1,8.15q-16.65-.1-33.29-.2c-2.34,0-4.6.44-4.6-3.31s2.08-3.44,4.51-3.43c9.95,0,19.89,0,29.83,0C215.5,311.36,217.56,311.72,219.19,310.14Z"/><path class="cls-10" d="M41.59,349.11l-3.92,0-10,0-3.92.09H14.5c-1.36-3.56.39-4.23,3.56-4.22,14.55,0,29.09-.1,43.64-.18,6.5,2,13.26,2,19.94,2.6a2,2,0,0,0,0,.8c0,.28-.1.55-.16.82l-1.88.11h-24l-3.92,0Z"/><path class="cls-6" d="M.52,427a101.09,101.09,0,0,1,0-20.87l10.16-.1q0,5.43-.05,10.86C10.67,426.87,10.67,426.87.52,427Z"/><path class="cls-2" d="M329.84,457.8c5,0,10,.08,15,0,2.46,0,3.12,1.07,3.11,3.33s-1,2.85-3.05,2.84q-15.47-.07-30.93,0c-2.22,0-2.85-1-2.84-3s.52-3.15,2.78-3.12C319.2,457.85,324.52,457.8,329.84,457.8Z"/><path class="cls-6" d="M16.62,378c0,4.76-.28,9.55.14,14.27.44,4.9-1.47,6.52-6.08,5.83a25.75,25.75,0,0,0-3.93,0,124.31,124.31,0,0,1,0-20Z"/><path class="cls-6" d="M8.79,520.83l9.9,0c0,5.31-.27,10.63,0,15.92.24,4-1.08,5.52-5,5a39.07,39.07,0,0,0-5,0Q8.75,531.3,8.79,520.83Z"/><path class="cls-6" d="M14.5,349.18h9.22c0,5.1-.37,10.23.05,15.29.39,4.73-1.45,6.23-5.84,5.61a23.39,23.39,0,0,0-3.45,0A106.74,106.74,0,0,1,14.5,349.18Z"/><path class="cls-6" d="M176.28,349.11q0,10.47,0,20.94h-3c-6.71,0-6.93-.22-6.95-7,0-4.64,0-9.29,0-13.93Z"/><path class="cls-2" d="M331.59,283c-3.31,0-6.62-.08-9.92,0-2.42.08-3.67-.55-3.64-3.3,0-2.53.82-3.54,3.44-3.49,6.95.13,13.9.08,20.85,0,2.1,0,3.52.32,3.47,2.92,0,2.32-.56,3.87-3.28,3.82C338.87,283,335.23,283,331.59,283Z"/><path class="cls-2" d="M331.52,230.24c-3.31,0-6.63-.11-9.93,0-2.5.11-3.57-.69-3.56-3.36s1-3.47,3.52-3.42q10.17.16,20.35,0c2.68,0,3.89.9,3.91,3.74s-1.7,3.07-3.87,3C338.46,230.19,335,230.24,331.52,230.24Z"/><path class="cls-2" d="M331.87,241.28c3.65,0,7.3.07,10.95,0,2.14-.06,3,.8,2.95,2.93-.06,1.94-.1,3.84-2.7,3.85-7.47.05-14.94,0-22.41.05-2.85,0-2.49-2-2.57-3.8-.1-2,.6-3.09,2.82-3C324.56,241.35,328.21,241.28,331.87,241.28Z"/><path class="cls-2" d="M464.12,393.94c-3.32,0-6.65-.1-10,0-2.5.1-3.6-.68-3.6-3.37s1.07-3.45,3.58-3.41c6.65.1,13.3.11,19.95,0,2.51,0,3.58.72,3.58,3.4s-1,3.5-3.56,3.39C470.78,393.83,467.45,393.94,464.12,393.94Z"/><path class="cls-2" d="M464.63,440c3.16,0,6.33.12,9.48,0,2.55-.12,3.55.75,3.55,3.4s-1.1,3.42-3.59,3.38q-10-.16-19.95,0c-2.52,0-3.56-.78-3.57-3.43s1.13-3.45,3.61-3.35C457.65,440.12,461.14,440,464.63,440Z"/><path class="cls-2" d="M463.69,481.79c-3.15,0-6.3-.09-9.45,0-2.36.08-3.66-.45-3.7-3.25s1.07-3.71,3.81-3.65q9.93.19,19.88,0c2.64-.06,3.41,1,3.43,3.51s-1,3.5-3.54,3.39C470.65,481.68,467.17,481.79,463.69,481.79Z"/><path class="cls-2" d="M463.79,358.89c-3.32,0-6.65-.08-10,0-2.34.07-3.23-.85-3.26-3.22s.72-3.61,3.4-3.56c6.81.13,13.63.1,20.45,0,2.35,0,3.22.83,3.24,3.2s-.68,3.7-3.38,3.58C470.78,358.77,467.29,358.89,463.79,358.89Z"/><path class="cls-2" d="M464.53,422.17c3.14,0,6.29.08,9.44,0,2.35-.08,3.67.44,3.7,3.25s-1.05,3.7-3.79,3.64q-9.94-.22-19.88,0c-2.61.05-3.45-.91-3.45-3.46s1-3.53,3.54-3.43C457.56,422.27,461.05,422.17,464.53,422.17Z"/><path class="cls-2" d="M332.12,212.46c-3.64,0-7.28-.08-10.92,0-2.41.07-3.16-1-3.14-3.27s.88-2.92,3-2.9q10.92.09,21.85,0c2.18,0,2.86.93,2.9,3,0,2.36-.9,3.27-3.24,3.19C339.08,212.38,335.6,212.46,332.12,212.46Z"/><path class="cls-2" d="M331.94,265.27c-3.48,0-7-.06-10.43,0-2.1,0-3.48-.31-3.45-2.92,0-2.3.77-3.28,3.16-3.25q10.68.13,21.35,0c2.35,0,3.21.88,3.23,3.21,0,2.56-1.29,3-3.43,3C338.89,265.21,335.41,265.27,331.94,265.27Z"/><path class="cls-2" d="M464.37,335c3.49,0,7,.06,10.46,0,2.26-.05,2.77,1.14,2.78,3.12s-.6,3.06-2.82,3q-10.73-.11-21.43,0c-2.26,0-2.77-1.1-2.77-3.09s.6-3.12,2.82-3.07C457.06,335.08,460.72,335,464.37,335Z"/><path class="cls-2" d="M464,463.92c-3.16,0-6.31,0-9.47,0-2,0-3.95.2-4-2.91,0-2.83,1.33-3.28,3.68-3.25,6.64.08,13.29.06,19.93,0,2.11,0,3.41.37,3.48,3,.07,2.86-1.36,3.29-3.69,3.22C470.64,463.84,467.32,463.92,464,463.92Z"/><path class="cls-2" d="M464.25,405c3.49,0,7,.07,10.46,0,2.17-.06,2.94.87,2.9,3,0,1.92-.4,3.21-2.7,3.19-7.14-.05-14.28-.06-21.42,0-2.17,0-2.85-.93-2.91-3-.07-2.39.87-3.25,3.21-3.17C457.27,405.08,460.76,405,464.25,405Z"/><path class="cls-2" d="M464.13,370.05c3.48,0,7,.06,10.46,0,2,0,3,.63,3,2.84s-.64,3.36-3.1,3.33q-10.45-.13-20.92,0c-2.55,0-3-1.2-3-3.38s1.08-2.83,3.08-2.79C457.15,370.11,460.64,370.05,464.13,370.05Z"/><path class="cls-10" d="M10.72,406.05l-10.16.1c-1.77-6.77,4-2.78,6-4.17l27,.13c-1.22,1.89-2.55,3.66-5,4h-4.8l-10.1-.07Z"/><path class="cls-8" d="M10.72,406.05h2.92c0,5.43-.1,10.86.09,16.28a15.39,15.39,0,0,1-2.17,8.92c-2.6,0-5.22-.26-7.81-.08-3.34.22-4-1.37-3.23-4.15,10.15-.15,10.15-.15,10.15-10.11Q10.68,411.48,10.72,406.05Z"/><path class="cls-8" d="M166.34,349.09c0,4.64,0,9.29,0,13.93,0,6.81.24,7,6.95,7h3c.78,7-4.64,2.65-7,3.87-1.11-1.24-2.56-.67-3.89-.75a154.94,154.94,0,0,1-3-24.08Z"/><path class="cls-10" d="M165.37,373.17c1.33.08,2.78-.49,3.89.75-.58,10,.66,20.12-.67,30.11C168.13,393.65,165.14,383.58,165.37,373.17Z"/><path class="cls-10" d="M166.34,349.09h-4l-.72-4.06c3.9,0,7.81.09,11.71-.09,3.4-.16,4,1.36,2.93,4.17Z"/><path class="cls-2" d="M106.66,282.5c-1.74-8.92-1.27-18-3.64-26.82C107.56,264.18,105.85,273.55,106.66,282.5Z"/><path class="cls-2" d="M53.51,280.32c-.29,9.61,1.52,19.16.51,28.81-2.19-9.57-.87-19.37-1.68-29Z"/><path class="cls-2" d="M110.09,322.84l-1.48-1.63c.35-5.77-1.54-11.45.26-17.36Q109.49,313.35,110.09,322.84Z"/><path class="cls-2" d="M59,265.7c-1,3.54-.79,7.15-.94,10.74C55.94,272.7,56.41,269.13,59,265.7Z"/><path class="cls-2" d="M77.55,261.24l-7.39-1.6c2.93-1.22,5.52-1.17,7.35,1.65Z"/><path class="cls-2" d="M65,294.34c-2.31-3-2.31-3-3-7.57C64,289.7,64.31,290.54,65,294.34Z"/><path class="cls-2" d="M89.36,284.75c2,2.33,2.89,3.9,2.31,5.92-.06.18-.55.24-.84.35Z"/><path class="cls-2" d="M86.45,293.08l-5,1.12c1.13-2.2,3.57-1.95,5.4-2.83.51-.24,1.48-.2.74.86A4.35,4.35,0,0,1,86.45,293.08Z"/><path class="cls-2" d="M60.57,284.78l-2.12-5.67,1.06-.41,2.19,5.61Z"/><path class="cls-2" d="M81.54,294.17a5.75,5.75,0,0,1-5.13,1.94C77.66,294.23,79.53,294,81.54,294.17Z"/><path class="cls-8" d="M296.78,546.32l-.87-.32h.44Z"/><path class="cls-2" d="M83,266.33c-.27.09-.61.32-.76.23s-.25-.49-.36-.75c.25-.08.58-.3.72-.22S82.85,266.07,83,266.33Z"/><path class="cls-2" d="M101.51,253.25a1.62,1.62,0,0,1-1-2l0,.06a1.71,1.71,0,0,1,1,2Z"/><path class="cls-2" d="M77.51,261.29a1.67,1.67,0,0,1,2,1l0,0a1.67,1.67,0,0,1-2-1Z"/><path class="cls-2" d="M62.6,261.28l1.1-.72.2.42-1.36.25Z"/><path class="cls-2" d="M101.46,253.3l.69.39c-.77.68-.48-.22-.65-.44Z"/><path class="cls-2" d="M100.52,251.25c-.7,0-1-.34-1-1l0,0,1,1Z"/><path class="cls-2" d="M99.5,250.27a.93.93,0,0,1-1-1l0,0,1,1Z"/><path class="cls-2" d="M98.5,249.27a.92.92,0,0,1-1-1l0,0,1,1Z"/><path class="cls-2" d="M96.48,247.31l1,1,0,0a.91.91,0,0,1-1-1Z"/><path class="cls-2" d="M95.46,246.31l1,1,0-.05c-.61,0-1-.31-1-1Z"/><path class="cls-2" d="M80.52,263.27l.65.46c-.74.53-.54-.17-.63-.49Z"/><path class="cls-2" d="M60.56,263.24l-.3.75c-.69-.6,0-.57.32-.72Z"/><path class="cls-2" d="M79.52,262.27l1,1,0,0c-.64,0-1-.31-1-1Z"/><path class="cls-2" d="M61.56,262.25a.92.92,0,0,1-1,1l0,0c.34-.33.67-.66,1-1Z"/><path class="cls-2" d="M61.58,262.27l1-1-.06,0c.06.71-.34,1-1,1Z"/><path class="cls-5" d="M381.13,161.43a8.35,8.35,0,0,0-8.32-5.93c-9.63-.07-19.27.1-28.91.17H125.54c-5.58-.6-10.91-.65-13.4,5.85-3.36-7.89.88-14.17,9.66-14.18q68.85,0,137.69,0,56.11,0,112.24,0C380.3,147.35,384.12,153.17,381.13,161.43Z"/><path class="cls-4" d="M112.14,161.51c2.49-6.5,7.82-6.45,13.4-5.85,10.35,3.36,14.16,5.69,18.37,11.5-8.49,0-16.66.23-24.81-.12A7.45,7.45,0,0,1,112.14,161.51Z"/><path class="cls-6" d="M450.74,156.56a4.11,4.11,0,0,1-.65.72c-10.76,6.74-17.21,5.52-29.37-5.55l-1.12-1.17.09.11-1.14-1.06.1.11a1.09,1.09,0,0,0-1.14-1l.09.11c-.12-1.14-.94-1.27-1.84-1.31l0,0-1.15-1a15.09,15.09,0,0,1-4.82-5c.27-2.81-1.69-4.62-3.14-6.55C396.56,121.42,390.9,106,386.76,89.8c-3.37-13.19-4.23-26.7-5.72-40.13-.33-2.92-1.79-6.57,2.27-8.85A38,38,0,0,0,400.7,20.45c.68-1.84,1.76-2.42,3.54-2.88,22.66-5.88,45.34-6.33,68.06-.48,2.22.57,4.43,1.2,5.35,3.88,2.81,8.2,8.57,14.08,15.64,18.67,2.57,1.67,3.43,3.5,3.46,6.48.1,8.47-.95,16.8-2,25.19-3.05,24.43-10.67,47.05-25.53,66.93-3,3.95-6.25,7.64-9.39,11.46l.08-.13-1.14,1,.09-.1-1.1,1.08.08-.05a2.57,2.57,0,0,0-3,2.14l.09-.13-1.16,1,.07-.05c-.92,0-1.73.13-2,1.21l.11-.15Z"/><path class="cls-8" d="M459.83,149.7c3.14-3.82,6.43-7.51,9.39-11.46,14.86-19.88,22.48-42.5,25.53-66.93,1.05-8.39,2.1-16.72,2-25.19,0-3-.89-4.81-3.46-6.48-7.07-4.59-12.83-10.47-15.64-18.67-.92-2.68-3.13-3.31-5.35-3.88-22.72-5.85-45.4-5.4-68.06.48-1.78.46-2.86,1-3.54,2.88a38,38,0,0,1-17.39,20.37c-4.06,2.28-2.6,5.93-2.27,8.85,1.49,13.43,2.35,26.94,5.72,40.13,4.14,16.19,9.8,31.62,19.92,45.14,1.45,1.93,3.41,3.74,3.14,6.55-9.22-8.77-15-19.82-19.71-31.33C381.29,88.71,378.2,66,377,43a4.44,4.44,0,0,1,2.6-4.75c8.59-4.75,15.17-11.3,17.63-21.18.5-2,2-2.39,3.65-2.86A136.39,136.39,0,0,1,477.07,14a5.38,5.38,0,0,1,4.29,4.1,29,29,0,0,0,14.38,18.32c4.55,2.49,5.4,5.32,5.14,10.16-1.14,21.17-4.41,41.87-12.09,61.71-5.83,15.06-14.14,28.52-26.11,39.54C461.83,148.6,461.12,149.59,459.83,149.7Z"/><path class="cls-8" d="M454.82,153.68a2.57,2.57,0,0,1,3-2.14A4.31,4.31,0,0,1,454.82,153.68Z"/><path class="cls-8" d="M451.83,155.71c.26-1.08,1.07-1.23,2-1.21A2,2,0,0,1,451.83,155.71Z"/><path class="cls-8" d="M415.76,147.49c.9,0,1.72.17,1.84,1.31A2,2,0,0,1,415.76,147.49Z"/><path class="cls-8" d="M450.74,156.56l1.2-1Z"/><path class="cls-8" d="M453.75,154.55l1.16-1Z"/><path class="cls-8" d="M457.76,151.59l1.1-1.08Z"/><path class="cls-8" d="M414.64,146.5l1.15,1Z"/><path class="cls-8" d="M418.55,149.61l1.14,1.06A1.15,1.15,0,0,1,418.55,149.61Z"/><path class="cls-8" d="M458.77,150.61l1.14-1Z"/><path class="cls-8" d="M419.6,150.56l1.12,1.17Z"/><path class="cls-8" d="M417.51,148.69a1.09,1.09,0,0,1,1.14,1C418,149.67,417.56,149.4,417.51,148.69Z"/><path class="cls-4" d="M277.64,44.54c17.94,0,35.88,0,53.82,0,2.84,0,4.69.18,4.62,3.9s-2.27,3.35-4.63,3.35q-54.31,0-108.65,0c-2.81,0-4.71-.16-4.63-3.89s2.3-3.35,4.64-3.35Z"/><path class="cls-6" d="M131.44,118.63c.14,3-1.85,4.46-4.26,4.59a4.16,4.16,0,0,1-4.66-4.63c.1-2.65,1.66-4.24,4.52-4.21S131.25,115.91,131.44,118.63Z"/><path class="cls-8" d="M110.38,123c-2.67-.33-4.52-1.77-4.35-4.45.13-2.22,1.34-4,4.16-4s4.15,1.46,4.21,4.32S112.54,122.48,110.38,123Z"/><path class="cls-5" d="M148.21,118.57a4.6,4.6,0,0,1-4.62,4.48,3.81,3.81,0,0,1-4.18-4c-.06-2.78,1.37-4.29,4.15-4.55C146.64,114.21,147.52,116.3,148.21,118.57Z"/><path class="cls-6" d="M186.25,512.81c-9.92.08-9.92.08-9.92-9.69,0-3.44,0-6.87,0-10.31l10.06,0a3.31,3.31,0,0,1,.28.82Q186.47,503.21,186.25,512.81Z"/><path class="cls-8" d="M136.08,374.47q-1.77-10-3.53-20c0-2.14.09-4.29.13-6.43,3.45.7,7.11-.49,10.46,1.17-2.6-.23-4,.58-3.81,3.57.23,3.63,0,7.28.06,10.91,0,7.09,2,8.22,9.05,5.29a5.26,5.26,0,0,1,.82,4.25C144.88,373.75,140.24,371.68,136.08,374.47Z"/><path class="cls-6" d="M150.43,377.06c2.56,6.12,3.28,12.71,4.88,19.07-2.08,3.83-5.58,1.82-8.28,1.6s-1.55-3.17-1.61-4.93c-.14-4.92,0-9.85,0-14.78C147.09,377.83,149,378.69,150.43,377.06Z"/><path class="cls-8" d="M145.38,378c0,4.93-.1,9.86,0,14.78.06,1.76-1.1,4.71,1.61,4.93s6.2,2.23,8.28-1.6c1.39,1.74.94,4,1.71,5.94l-17.44,0c-.31-1.35-.62-2.71-.94-4.07,2.76.26,2.8-1.56,2.78-3.54-.06-5.48,0-11-.07-16.46A2.6,2.6,0,0,1,145.38,378Z"/><path class="cls-6" d="M148.44,368.94c-7.1,2.93-9.05,1.8-9.05-5.29,0-3.63.17-7.28-.06-10.91-.18-3,1.21-3.8,3.81-3.57C145.91,355.49,147.1,362.23,148.44,368.94Z"/><path class="cls-10" d="M139.58,402l17.44,0c.35,1.33.69,2.66,1,4-1.42,1-3.05,1-4.68.88-1.42-1.54-3.22-.75-4.89-.81-1.55.15-3.7-1-4.48.76s1.66,2.52,2.41,3.92c.32.6,1.28.85,2,1.27l0,1.87c-2.05.71-2.56,3-4.21,4.11-1.6-.29-2.71-1-2.93-2.81C140.73,410.84,140.15,406.44,139.58,402Z"/><path class="cls-10" d="M145.38,378a2.6,2.6,0,0,0-4,0l-4.72.09c-.72-1.11-1.87-2.15-.56-3.58,4.17-2.8,8.81-.73,13.19-1.29l1.17,3.87C149,378.69,147.09,377.83,145.38,378Z"/><path class="cls-4" d="M132.68,348c0,2.14-.08,4.29-.13,6.43-1.72-3.13-1.66-6.66-2-10a19.23,19.23,0,0,0-1.79-6.15,3,3,0,0,1,2.71.69A19.89,19.89,0,0,0,132.68,348Z"/><path class="cls-10" d="M163.16,424.14l-.39,2.73-.51-2.73A.88.88,0,0,1,163.16,424.14Z"/><path class="cls-10" d="M148.29,424.86a75.37,75.37,0,0,1,11.59,39.48,71.66,71.66,0,0,1-15.76,46.07c-10.91,13.74-25,23-42.35,26.72-16.37,3.5-32.19,2-47.3-5.49,2.83-3.74.86-5.63-2.6-7.2a30.19,30.19,0,0,1-5.48-3.34,83.81,83.81,0,0,1-19.16-20l-3.49,3.79C8.41,483,8.11,449.07,22.6,426.4,32.75,410.54,46.43,399.5,64.4,394c13.26-4.08,26.7-3.94,40.15-.84-3,3.29-3.46,5.66,2.07,6.08.78.06,1.51.69,2.29.94,7.5,2.42,13.77,7.14,20.52,10.94,1.35,2.88,3.26,5.62,1.92,9.09s.31,4.33,3.48,4a31,31,0,0,1,4.4.18L105.35,467c-6.46-4.29-12.88-8.65-19.42-12.82a15.31,15.31,0,0,1-4.33-4.68c-1.84-2.71-2.38-5.66-.45-8.32s4.85-2.62,7.73-1.93c3.6.86,3.9,3.65,3.62,6.64s.72,4.26,3.88,4.1c4.14-.22,8.3-.18,12.44,0,2.9.12,3.77-1.1,3.66-3.83-.42-9.6-3.67-17.1-14.09-20.45-1.31-.42-3.72-.42-3.6-2.08.49-6.3-4.41-4.18-7.37-5.09A5.91,5.91,0,0,1,89,415c3.47-4.62,6.76-9.38,10.2-14,1.89-2.54,1.61-3.53-1.77-4a73,73,0,0,0-21.69-.06c-20.17,3.07-35.94,13.17-47.12,29.9-9.14,13.69-13.15,28.9-11.07,45.67a73.73,73.73,0,0,0,7.87,24.87c1.31,2.55,2.39,2.84,4.1.32,2.14-3.14,4.54-6.1,6.8-9.16,8.25-11.13,15.75-22.82,24.54-33.56,1.83,2.11,3.65,4.22,5.5,6.32,5.25,6,12.65,8.95,18.93,13.49,3,2.2,5.49,4.65,6.48,8.44,1,4-.65,6.89-4.64,7.58-5.3.92-8.78-2-8.4-7.91.3-4.72-1.07-6.66-6-6.09a91.29,91.29,0,0,1-9.93.08c-1.54,0-3.18,0-3.21,2.14-.1,6.26-.56,12.4,3.33,18.17,2.76,4.1,7.48,4.7,10.66,7.75-.26,2.07-1.45,3.61-2.74,5.18-4,4.85-7.76,9.87-11.79,14.67-1.57,1.86-1.22,2.78.81,3.65a62.55,62.55,0,0,0,26.54,5.15,70.43,70.43,0,0,0,34.4-9.77,69.13,69.13,0,0,0,32.12-73.19c-2-9.3-6.59-17.22-10.55-25.55A10.9,10.9,0,0,1,148.29,424.86Z"/><path class="cls-11" d="M23.74,504.89l3.49-3.79a83.81,83.81,0,0,0,19.16,20,30.19,30.19,0,0,0,5.48,3.34c3.46,1.57,5.43,3.46,2.6,7.2l-1.89,0c-5.44-4.53-11.91-7.59-17.13-12.46-4.38-4.08-7.71-9-11.66-13.42A4.85,4.85,0,0,1,23.74,504.89Z"/><path class="cls-11" d="M129.43,411.09c-6.75-3.8-13-8.52-20.52-10.94-.78-.25-1.51-.88-2.29-.94-5.53-.42-5.07-2.79-2.07-6.08.31,0,.62,0,.93,0a134.36,134.36,0,0,1,17.58,7.67c1,.53,2.19,1.94,3.4.17A34.82,34.82,0,0,1,129.43,411.09Z"/><path class="cls-10" d="M126.46,401c-1.21,1.77-2.41.36-3.4-.17a134.36,134.36,0,0,0-17.58-7.67c1.5-3.51,3-6.94,8-5.09l3.94,1.9c2.3,1,4.29,2.65,6.86,3A17.76,17.76,0,0,1,126.46,401Z"/><path class="cls-8" d="M43.71,377.21c1.66.05,3.47-.75,4.84.86,0,3.82-.14,7.65.07,11.46.15,2.94-1.59,4.86-3.83,4.85-2.06,0-1.06-2.73-1.1-4.21C43.57,385.85,43.69,381.53,43.71,377.21Z"/><path class="cls-8" d="M57.67,377.17c1.65.11,3.48-.71,4.85.9,0,2.14,0,4.29,0,6.43a3,3,0,0,1-3,3.24c-2.38.21-1.87-1.79-1.91-3.15C57.56,382.12,57.64,379.64,57.67,377.17Z"/><path class="cls-8" d="M117.39,390l-3.94-1.9c0-3.64,0-7.29.08-10.93,1.36.06,2.86-.51,3.93.87Q117.43,384,117.39,390Z"/><path class="cls-8" d="M99.56,377.15c1.36.06,2.86-.51,3.92.87-.75,2.29,1.81,6.64-2.18,6.58-3.45-.05-1.16-4.23-1.77-6.48A3.53,3.53,0,0,1,99.56,377.15Z"/><path class="cls-8" d="M71.64,377.17c1.36,0,2.84-.5,3.94.81,0,1-.1,2,0,2.95.12,1.89-.52,3.55-2.47,3.56-2.31,0-1.33-2.13-1.47-3.38A28.81,28.81,0,0,1,71.64,377.17Z"/><path class="cls-8" d="M85.59,377.15c1.37,0,2.86-.48,4,.83l-.06,2.43c0,1.43-.34,2.62-2.14,2.52-1.52-.09-1.78-1.17-1.8-2.38S85.58,378.28,85.59,377.15Z"/><path class="cls-8" d="M23.74,406.12h4.8c-.23,2.65-2.41,3.68-4.8,6Z"/><path class="cls-6" d="M142.35,425c4,8.33,8.58,16.25,10.55,25.55a69.13,69.13,0,0,1-32.12,73.19,70.43,70.43,0,0,1-34.4,9.77,62.55,62.55,0,0,1-26.54-5.15c-2-.87-2.38-1.79-.81-3.65,4-4.8,7.81-9.82,11.79-14.67,1.29-1.57,2.48-3.11,2.74-5.18,1.49,0,3.61-.18,3.56,1.72-.13,5.2,3.41,4.18,6.41,4.22,2.65,0,5.3,0,8,0,1.65,0,3.19-.27,2.94-2.34-.43-3.54,2.18-3.85,4.49-4.68,10.3-3.72,15.3-13.46,13.07-24.22-1-5-4.22-8.52-6.64-12.6l33.88-42.63C140.46,423.72,141.33,424.73,142.35,425Z"/><path class="cls-6" d="M81.44,349c.06-.27.11-.54.16-.82l3-.12c2.87,1.23,5.9,1,8.91.94,0,5.81-.13,11.63.1,17.44.17,4.47-2.86,3.48-5.37,3.62-2.71.15-5,.07-4.73-3.76.25-4.47.06-9,.05-13.46C83.51,351.2,83.81,349.38,81.44,349Z"/><path class="cls-6" d="M107.43,349.3c0,5.66-.15,11.32.11,17,.17,3.81-2,4-4.72,3.8-2.5-.16-5.82.88-5.32-3.6.66-5.84-1.49-11.87,1.22-17.57Z"/><path class="cls-6" d="M118.45,370c-7,0-7,0-7-6.82,0-4.47.09-8.93.13-13.4,1.2-.13,1.75.41,2,1.59C115.18,357.62,117.55,363.63,118.45,370Z"/><path class="cls-6" d="M136.63,378.06l4.72-.09c0,5.49,0,11,.07,16.46,0,2,0,3.8-2.78,3.54C138,391.34,136.57,384.77,136.63,378.06Z"/><path class="cls-6" d="M117.39,390q0-6,.07-12l2.82-.88c1.11,5.34,3.42,10.38,4,15.85C121.68,392.63,119.69,391,117.39,390Z"/><path class="cls-8" d="M84.55,348.06l-3,.12a2,2,0,0,1,0-.8C82.66,347.38,83.86,346.63,84.55,348.06Z"/><path class="cls-6" d="M118.92,373.67a.72.72,0,0,1-.48-.49,2.13,2.13,0,0,0,0-.94C119.18,372.52,119.17,373.06,118.92,373.67Z"/><path class="cls-8" d="M186.36,455.89c1,3,.12,4.27-3.14,4.06-2.61-.17-5.25,0-7.87.05l-8.84.22c-.43-2.66-.15-4.75,3.38-4.33,3.1.38,3.5-1.46,3.46-4-.09-5.64,0-11.3,0-17h3c0,3.61,0,7.22,0,10.83C176.33,455.93,176.33,455.93,186.36,455.89Z"/><path class="cls-10" d="M186.4,492.79l-10.06,0h-3l-5,.1-6-.14,1-4.83,11.48,0a68,68,0,0,0,7.27.17C185.75,487.8,187.33,489.06,186.4,492.79Z"/><path class="cls-8" d="M174.83,487.92l-11.48,0c3-7.8,3.87-15.94,4-24.2l2.93.16c0,5.62.2,11.26-.07,16.87-.17,3.45,1.27,4.44,4.33,4.12C174.66,485.9,174.74,486.91,174.83,487.92Z"/><path class="cls-10" d="M176.3,435h-3c-3.43,0-6.86,0-10.28-.1a2.3,2.3,0,0,1-2.52-2.42c.06-1.66,1.45-1.42,2.57-1.45,6.79,0,13.57.06,20.35,0,3.12-.05,4.48.85,2.89,4Z"/><path class="cls-10" d="M155.37,521.81c-3.36,0-6.76.23-10-1.08l3-3.92c6.08,0,12.17.15,18.25,0,3.19-.09,4.18,1.16,3.5,4.11l-8.82,0-3.83,0Z"/><path class="cls-8" d="M148.4,414c0-.63,0-1.25,0-1.88l.12-5.94c1.67.06,3.47-.73,4.89.81v11.3Z"/><path class="cls-11" d="M170.32,463.9l-2.93-.16c-.3-1.17-.59-2.35-.88-3.52l8.84-.22c-.17,1.37-.34,2.74-.52,4.11Z"/><path class="cls-6" d="M170.32,463.9l4.51.21q.22,7.38.44,14.77l-.69,6c-3.06.32-4.5-.67-4.33-4.12C170.52,475.16,170.32,469.52,170.32,463.9Z"/><path class="cls-6" d="M161.26,520.93l8.82,0c0,5.8-.06,11.61.19,17.4.16,3.6-2,3.51-4.45,3.49s-4.64.17-4.53-3.45C161.46,532.54,161.29,526.73,161.26,520.93Z"/><path class="cls-6" d="M155.37,521.81l2.06-.93c0,5.8-.21,11.61,0,17.41.13,4.08-2.55,3.5-5,3.46s-5,.79-5.13-3.35c-.09-4.51.3-8.43,4.26-11.45C153.17,525.7,154.11,523.55,155.37,521.81Z"/><path class="cls-6" d="M168.34,492.91l5-.1c0,5.45,0,10.9,0,16.35,0,1.43.33,3.35-1.75,3.52-2.76.22-5.8,1-8.26-.38-1.95-1.06,0-2.92.48-4.34C165.55,503,167.82,498.23,168.34,492.91Z"/><path class="cls-6" d="M136,541.57a24.2,24.2,0,0,1,6.62-5.1C144,541.89,143.93,542,136,541.57Z"/><path class="cls-6" d="M69.53,349.11h10c0,5.77-.19,11.55,0,17.32.17,4.4-2.76,3.54-5.29,3.63s-5,.26-4.81-3.64C69.71,360.66,69.54,354.88,69.53,349.11Z"/><path class="cls-6" d="M55.56,349.11h10c0,5.77-.19,11.55,0,17.32.17,4.4-2.76,3.54-5.29,3.63s-5,.26-4.81-3.64C55.74,360.66,55.57,354.88,55.56,349.11Z"/><path class="cls-6" d="M41.59,349.11l10,0c0,5.77-.19,11.55,0,17.31.17,4.41-2.79,3.52-5.31,3.61s-5,.26-4.8-3.63C41.77,360.66,41.6,354.88,41.59,349.11Z"/><path class="cls-6" d="M27.64,349.09l10,0c0,5.62-.2,11.26,0,16.87.14,3.45-1.33,4.26-4.41,4.1-2.91-.15-5.78.22-5.67-4.14C27.76,360.34,27.65,354.72,27.64,349.09Z"/><path class="cls-6" d="M22.64,526.71c3,3,5.95,5.4,8.56,8.1,1.73,1.78,2.22,4.26.94,5.87-1.8,2.26-4.9,1-7.42,1s-2-2.13-2.07-3.71C22.61,534.2,22.64,530.46,22.64,526.71Z"/><path class="cls-6" d="M29.75,377.2c0,5.76-.22,11.54,0,17.29.13,4-2.39,3.46-4.88,3.58-2.72.12-4.37-.42-4.25-3.72.2-5.43.06-10.87.06-16.31C23.74,378.44,26.61,376.35,29.75,377.2Z"/><path class="cls-6" d="M176.3,435l10.06,0v20.91c-10,0-10,0-10-10.1C176.33,442.18,176.31,438.57,176.3,435Z"/><path class="cls-6" d="M148.48,406.13l-.12,5.94c-.67-.41-1.63-.66-2-1.26-.75-1.4-3.18-2.21-2.41-3.92S146.93,406.28,148.48,406.13Z"/><path class="cls-6" d="M60.82,454.93C52,465.67,44.53,477.36,36.28,488.49c-2.26,3.06-4.66,6-6.8,9.16-1.71,2.52-2.79,2.23-4.1-.32a73.73,73.73,0,0,1-7.87-24.87c-2.08-16.77,1.93-32,11.07-45.67,11.18-16.73,27-26.83,47.12-29.9a73,73,0,0,1,21.69.06c3.38.48,3.66,1.47,1.77,4-3.44,4.65-6.73,9.41-10.2,14a5.91,5.91,0,0,0-1.54,3.55c-2.32.12-4.64.29-7,.33-1.67,0-3.12.34-3,2.38.2,2.88-1.72,3.5-3.86,4.28-8.21,3-13.12,8.71-14.06,17.58C59.15,447.14,60.26,451,60.82,454.93Z"/><path class="cls-11" d="M60.82,454.93c-.56-3.92-1.67-7.79-1.25-11.82.94-8.87,5.85-14.59,14.06-17.58,2.14-.78,4.06-1.4,3.86-4.28-.15-2,1.3-2.35,3-2.38,2.32,0,4.64-.21,7-.33,3,.91,7.86-1.21,7.37,5.09-.12,1.66,2.29,1.66,3.6,2.08,10.42,3.35,13.67,10.85,14.09,20.45.11,2.73-.76,3.95-3.66,3.83-4.14-.17-8.3-.21-12.44,0-3.16.16-4.16-1.18-3.88-4.1s0-5.78-3.62-6.64c-2.88-.69-5.87-.62-7.73,1.93s-1.39,5.61.45,8.32a15.31,15.31,0,0,0,4.33,4.68c6.54,4.17,13,8.53,19.42,12.82,2.42,4.08,5.61,7.62,6.64,12.6,2.23,10.76-2.77,20.5-13.07,24.22-2.31.83-4.92,1.14-4.49,4.68.25,2.07-1.29,2.36-2.94,2.34-2.66,0-5.31,0-8,0-3,0-6.54,1-6.41-4.22,0-1.9-2.07-1.73-3.56-1.72-3.18-3-7.9-3.65-10.66-7.75C59,491.38,59.47,485.24,59.57,479c0-2.11,1.67-2.14,3.21-2.14a91.29,91.29,0,0,0,9.93-.08c4.91-.57,6.28,1.37,6,6.09-.38,5.87,3.1,8.83,8.4,7.91,4-.69,5.67-3.61,4.64-7.58-1-3.79-3.44-6.24-6.48-8.44-6.28-4.54-13.68-7.52-18.93-13.49C64.47,459.15,62.65,457,60.82,454.93Z"/></g></g></svg>