<svg width="106" height="42" viewBox="0 0 106 42" fill="none" xmlns="http://www.w3.org/2000/svg">
<path d="M40.2603 11.8767C32.5911 1.44852 20.5562 -3.04429 13.8305 2.46678C9.92218 5.61979 8.77191 11.3073 10.0915 17.4771C14.0504 15.0453 18.2886 14.6166 21.0884 16.8987C25.2122 20.2259 24.4776 27.9945 19.7908 34.2358C27.5546 41.7142 37.091 44.1102 42.6247 39.633C48.8533 34.5149 47.9625 22.3316 40.2603 11.8767Z" fill="url(#paint0_linear_2149_202)"/>
<path d="M16.7425 30.9265C13.3115 26.7128 11.0549 21.9632 10.0938 17.4771C7.85093 18.8827 5.89353 20.7109 4.32702 22.8631C-0.557791 29.4906 -1.11863 37.2146 2.83144 40.4637C6.78152 43.7127 14.0724 41.2876 19.2322 34.9414C19.4235 34.7181 19.6039 34.477 19.7776 34.2403C18.7075 33.1924 17.6942 32.0861 16.7425 30.9265Z" fill="url(#paint1_linear_2149_202)"/>
<path d="M21.0929 16.8987C18.2997 14.6077 14.0549 15.0453 10.0961 17.4771C11.0572 21.9632 13.3049 26.7128 16.7448 30.9265C17.6899 32.0935 18.7066 33.1988 19.7887 34.2358C24.4734 27.999 25.208 20.2259 21.0929 16.8987Z" fill="url(#paint2_linear_2149_202)"/>
<path d="M53.5775 12.3677C54.0386 12.3595 54.4975 12.4352 54.9324 12.591C55.3267 12.7351 55.686 12.9636 55.9859 13.2609C56.2894 13.5705 56.5248 13.9419 56.6765 14.3507C56.8473 14.8177 56.9308 15.3129 56.9228 15.811C56.9244 15.9498 56.9178 16.0885 56.903 16.2264C56.893 16.3163 56.8661 16.4035 56.8238 16.4832C56.788 16.5424 56.7339 16.588 56.6699 16.6127C56.5899 16.64 56.5057 16.6529 56.4213 16.6507H52.1281C52.2015 17.2833 52.3906 17.7411 52.6956 18.024C53.0221 18.3156 53.4466 18.4683 53.8811 18.4505C54.1047 18.4548 54.3275 18.4224 54.5409 18.3544C54.7126 18.2984 54.8796 18.2282 55.0401 18.1445C55.1853 18.0664 55.3194 17.9949 55.4426 17.9324C55.5609 17.8705 55.6922 17.8383 55.8253 17.8386C55.9033 17.8337 55.9813 17.8492 56.0518 17.8836C56.1222 17.918 56.1828 17.9702 56.2278 18.0351L56.8744 18.8435C56.6601 19.0973 56.4095 19.3171 56.131 19.4955C55.8745 19.6588 55.5999 19.7907 55.3128 19.8885C55.0398 19.9821 54.7584 20.0487 54.4727 20.0873C54.2072 20.122 53.9398 20.1399 53.6721 20.1409C53.1718 20.1444 52.6749 20.0566 52.2051 19.8818C51.7563 19.7153 51.3476 19.4534 51.0065 19.1137C50.6507 18.7539 50.3741 18.3216 50.1949 17.8453C49.985 17.2821 49.8834 16.6833 49.8958 16.0812C49.8935 15.5908 49.98 15.1041 50.1509 14.6454C50.3147 14.1992 50.5669 13.7919 50.8918 13.4485C51.2168 13.1052 51.6076 12.8331 52.0402 12.6491C52.528 12.4485 53.0514 12.3527 53.5775 12.3677ZM53.6215 13.9309C53.4392 13.92 53.2565 13.9471 53.0848 14.0104C52.9131 14.0738 52.756 14.1721 52.623 14.2993C52.3617 14.5951 52.1966 14.9655 52.1501 15.36H54.9346C54.9352 15.1827 54.9123 15.0062 54.8664 14.8352C54.8226 14.6732 54.7479 14.5214 54.6464 14.3886C54.5375 14.2499 54.3982 14.1391 54.2396 14.0648C54.0445 13.9712 53.8306 13.9253 53.6149 13.9309H53.6215Z" fill="#CE0E2D"/>
<path d="M57.5144 20.0382V12.4794H58.8934C59.0162 12.4744 59.1375 12.508 59.2409 12.5755C59.3389 12.6422 59.4093 12.7431 59.4389 12.859L59.5686 13.3056C59.708 13.1707 59.8549 13.044 60.0085 12.926C60.1617 12.81 60.3269 12.7111 60.5012 12.6313C60.6834 12.5484 60.8735 12.4848 61.0686 12.4415C61.2853 12.3936 61.5066 12.3704 61.7284 12.3722C62.1006 12.3679 62.4695 12.444 62.8105 12.5955C63.1148 12.7331 63.3852 12.9375 63.6023 13.194C63.8244 13.4608 63.9906 13.7708 64.0905 14.1051C64.2033 14.4768 64.2589 14.8639 64.2555 15.2528V20.056H62.0385V15.235C62.0569 14.9257 61.9674 14.6197 61.7856 14.3708C61.6941 14.265 61.5799 14.1819 61.4517 14.1281C61.3236 14.0743 61.185 14.0511 61.0466 14.0604C60.808 14.0591 60.5723 14.1141 60.3582 14.2212C60.133 14.3342 59.9249 14.4794 59.7402 14.6522V20.0382H57.5144Z" fill="#CE0E2D"/>
<path d="M67.5942 20.1544C67.2751 20.1607 66.9576 20.1078 66.6573 19.9981C66.4008 19.9012 66.1681 19.7488 65.9755 19.5515C65.7882 19.3522 65.645 19.1147 65.5554 18.8547C65.4571 18.5615 65.4088 18.2534 65.4124 17.9437V14.0404H64.7812C64.7239 14.0429 64.6666 14.0329 64.6134 14.011C64.5602 13.9891 64.5123 13.9559 64.4729 13.9135C64.4335 13.8711 64.4035 13.8207 64.3849 13.7655C64.3664 13.7103 64.3598 13.6518 64.3655 13.5938V12.7117L65.5488 12.4773L65.9887 10.6328C66.012 10.5231 66.0752 10.4263 66.1657 10.3617C66.2562 10.2972 66.3673 10.2696 66.4769 10.2845H67.6404V12.4929H69.4505V14.0382H67.6426V17.7941C67.6367 17.9485 67.6807 18.1006 67.768 18.2273C67.8101 18.2836 67.8652 18.3286 67.9285 18.3582C67.9918 18.3878 68.0613 18.4011 68.1309 18.397C68.1999 18.3993 68.2688 18.391 68.3354 18.3724C68.3848 18.3578 68.4326 18.3383 68.4784 18.3144L68.5927 18.2563C68.6328 18.2378 68.6763 18.2287 68.7203 18.2295C68.7778 18.2263 68.8346 18.2437 68.8808 18.2786C68.931 18.3206 68.9735 18.3712 69.0062 18.4283L69.6814 19.4979C69.3894 19.7193 69.061 19.8864 68.7115 19.9914C68.349 20.1012 67.9725 20.1561 67.5942 20.1544Z" fill="#CE0E2D"/>
<path d="M69.9255 20.0382V12.4795H71.2452C71.3383 12.4784 71.4313 12.4881 71.5223 12.5085C71.5895 12.5257 71.6524 12.5568 71.707 12.6C71.759 12.6434 71.7991 12.6995 71.8236 12.7631C71.8528 12.8437 71.8756 12.9266 71.8918 13.0109L72.0127 13.7188C72.2541 13.3255 72.5659 12.9816 72.9321 12.705C73.2541 12.4632 73.6444 12.3332 74.045 12.3343C74.3375 12.3198 74.6262 12.4073 74.8631 12.5822L74.575 14.2435C74.5722 14.2868 74.5606 14.329 74.5409 14.3674C74.5212 14.4058 74.4939 14.4397 74.4606 14.4668C74.3954 14.5101 74.3186 14.5319 74.2407 14.5294C74.1438 14.5277 74.0473 14.5164 73.9526 14.4959C73.8152 14.4732 73.6761 14.4628 73.5369 14.4646C72.9504 14.4646 72.4907 14.7802 72.1579 15.4114V20.0471L69.9255 20.0382Z" fill="#CE0E2D"/>
<path d="M78.2194 12.3677C78.6805 12.3595 79.1393 12.4352 79.5742 12.591C79.9686 12.7351 80.3278 12.9636 80.6277 13.2609C80.9312 13.5705 81.1666 13.9419 81.3183 14.3507C81.4891 14.8177 81.5727 15.3129 81.5646 15.811C81.5662 15.9498 81.5596 16.0885 81.5448 16.2264C81.5348 16.3163 81.5079 16.4035 81.4656 16.4832C81.4298 16.5424 81.3757 16.588 81.3117 16.6127C81.2317 16.64 81.1475 16.6529 81.0631 16.6507H76.77C76.8433 17.2833 77.0324 17.7411 77.3374 18.024C77.6639 18.3156 78.0884 18.4683 78.5229 18.4505C78.7465 18.4548 78.9693 18.4224 79.1827 18.3544C79.3545 18.2984 79.5214 18.2282 79.682 18.1445C79.8271 18.0664 79.9613 17.9949 80.0844 17.9324C80.2028 17.8705 80.334 17.8383 80.4671 17.8386C80.5452 17.8337 80.6231 17.8492 80.6936 17.8836C80.764 17.918 80.8246 17.9702 80.8696 18.0351L81.5162 18.8435C81.3019 19.0973 81.0513 19.3171 80.7728 19.4955C80.5163 19.6588 80.2417 19.7907 79.9547 19.8885C79.6816 19.9821 79.4002 20.0487 79.1145 20.0873C78.849 20.122 78.5816 20.1399 78.3139 20.1409C77.8136 20.1444 77.3167 20.0566 76.847 19.8818C76.3981 19.7153 75.9895 19.4534 75.6483 19.1137C75.2925 18.7539 75.0159 18.3216 74.8367 17.8453C74.6268 17.2821 74.5253 16.6833 74.5376 16.0812C74.5353 15.5908 74.6218 15.1041 74.7927 14.6454C74.9565 14.1992 75.2087 13.7919 75.5337 13.4485C75.8586 13.1052 76.2494 12.8331 76.682 12.6491C77.1698 12.4485 77.6933 12.3527 78.2194 12.3677ZM78.2634 13.9309C78.081 13.92 77.8983 13.9471 77.7266 14.0104C77.5549 14.0738 77.3978 14.1721 77.2648 14.2993C77.0035 14.5951 76.8384 14.9655 76.792 15.36H79.5676C79.5682 15.1827 79.5453 15.0062 79.4994 14.8352C79.4556 14.6732 79.3809 14.5214 79.2795 14.3886C79.1706 14.2499 79.0312 14.1391 78.8726 14.0648C78.6822 13.9735 78.4738 13.9277 78.2634 13.9309Z" fill="#CE0E2D"/>
<path d="M59.9557 30.9711C59.7514 30.9821 59.5473 30.9446 59.3597 30.8617C59.2007 30.7561 59.0819 30.5986 59.0232 30.4151L58.8252 29.8948C58.5921 30.0958 58.3678 30.2722 58.1522 30.424C57.9445 30.5731 57.7236 30.7024 57.4924 30.8103C57.2578 30.9188 57.0111 30.9983 56.7578 31.047C56.4721 31.101 56.1819 31.1272 55.8913 31.1252C55.4993 31.1306 55.1089 31.0733 54.7344 30.9555C54.4098 30.8546 54.1099 30.6848 53.8547 30.4575C53.6084 30.2324 53.4165 29.9528 53.2938 29.6402C53.1558 29.2804 53.0885 28.8965 53.0959 28.5103C53.1015 28.1516 53.1872 27.7989 53.3466 27.4787C53.5524 27.0851 53.8556 26.7526 54.2264 26.514C54.7393 26.1799 55.3035 25.9346 55.8957 25.7883C56.759 25.5737 57.6463 25.4754 58.5349 25.4958V25.0894C58.5349 24.5333 58.4228 24.1292 58.1984 23.8813C58.0746 23.7532 57.9251 23.6536 57.76 23.5892C57.5949 23.5249 57.4182 23.4973 57.2417 23.5084C56.9686 23.501 56.6961 23.538 56.4345 23.6178C56.2416 23.6848 56.0541 23.767 55.8737 23.8634C55.7087 23.955 55.5482 24.0376 55.3942 24.1091C55.2187 24.186 55.0289 24.2234 54.8378 24.2185C54.6639 24.2239 54.4927 24.1747 54.3473 24.0778C54.2161 23.9872 54.107 23.8673 54.0284 23.7272L53.527 22.834C54.0742 22.343 54.7097 21.9639 55.3986 21.7175C56.1053 21.4664 56.8493 21.3409 57.598 21.3468C58.1183 21.3394 58.6351 21.4342 59.12 21.626C59.5526 21.7983 59.9441 22.0624 60.268 22.4008C60.5867 22.7386 60.8324 23.1402 60.9894 23.5799C61.1623 24.0581 61.248 24.5643 61.2423 25.0737V30.9778L59.9557 30.9711ZM56.7622 29.2495C57.0861 29.2566 57.4075 29.191 57.7036 29.0574C58.01 28.9018 58.287 28.6924 58.5217 28.4389V27.1437C58.061 27.1359 57.6007 27.1733 57.1471 27.2554C56.8523 27.3069 56.5659 27.3993 56.296 27.53C56.1172 27.6112 55.9647 27.742 55.8561 27.9074C55.7755 28.0468 55.7337 28.2058 55.7351 28.3674C55.7216 28.4941 55.7381 28.6222 55.7833 28.741C55.8284 28.8599 55.9009 28.9661 55.9946 29.0507C56.2229 29.1987 56.492 29.2684 56.7622 29.2495Z" fill="#005CB9"/>
<path d="M62.3069 30.9712V21.5233H64.0312C64.1862 21.517 64.3395 21.5582 64.4711 21.6416C64.5927 21.7263 64.6808 21.8522 64.7196 21.9967L64.8714 22.5081C65.023 22.3487 65.1846 22.1996 65.3552 22.0614C65.5234 21.9232 65.7055 21.8034 65.8985 21.7042C66.0992 21.6027 66.3101 21.5234 66.5275 21.4675C66.7696 21.4092 67.0177 21.3807 67.2665 21.3826C67.7686 21.3652 68.2614 21.5228 68.6631 21.8292C69.0412 22.14 69.3306 22.5478 69.501 23.0105C69.648 22.7303 69.8406 22.4774 70.0707 22.2624C70.2853 22.056 70.5283 21.8822 70.7921 21.7466C71.0547 21.6186 71.3316 21.5234 71.6168 21.463C71.902 21.4036 72.1923 21.3736 72.4834 21.3737C72.9661 21.365 73.4463 21.4467 73.8998 21.6148C74.2947 21.7637 74.6501 22.0037 74.9379 22.316C75.2264 22.6418 75.4417 23.0273 75.5691 23.4459C75.7215 23.9362 75.7958 24.4481 75.789 24.9621V30.9667H73.0024V24.9666C73.0024 23.9885 72.5897 23.4995 71.7642 23.4995C71.5908 23.4945 71.4182 23.5256 71.257 23.5909C71.0959 23.6562 70.9497 23.7543 70.8273 23.8791C70.6963 24.0256 70.5958 24.1974 70.532 24.3843C70.4681 24.5712 70.4421 24.7693 70.4556 24.9666V30.9712H67.6734V24.9666C67.6734 24.4262 67.5685 24.0466 67.3588 23.8278C67.2352 23.7118 67.0894 23.6228 66.9305 23.5663C66.7716 23.5098 66.603 23.4871 66.4351 23.4995C66.1872 23.4985 65.9428 23.5582 65.7225 23.6737C65.4893 23.7948 65.2757 23.9514 65.0891 24.1381V30.9712H62.3069Z" fill="#005CB9"/>
<path d="M79.6622 21.5232V30.9711H76.8822V21.5232H79.6622Z" fill="#005CB9"/>
<path d="M84.2544 21.358C84.63 21.3562 85.0046 21.3959 85.3717 21.4764C85.7078 21.5516 86.0346 21.6646 86.346 21.8135H89.1546V22.843C89.1617 22.9805 89.1151 23.1153 89.0248 23.2181C88.9 23.3277 88.7478 23.4004 88.585 23.428L87.9032 23.5821C87.9869 23.8561 88.0291 24.1415 88.0285 24.4284C88.0361 24.8721 87.9356 25.3109 87.736 25.7057C87.5426 26.0814 87.27 26.4093 86.9376 26.6659C86.5782 26.9405 86.1729 27.147 85.7412 27.2755C85.2607 27.4242 84.7611 27.4995 84.2588 27.4988C83.983 27.4999 83.7075 27.482 83.434 27.4452C83.3505 27.4812 83.278 27.5394 83.2242 27.6137C83.1704 27.6879 83.1373 27.7755 83.1283 27.8672C83.1277 27.9444 83.1515 28.0197 83.1963 28.082C83.241 28.1443 83.3043 28.1904 83.3769 28.2134C83.5887 28.2942 83.8109 28.3438 84.0367 28.3607C84.3072 28.3875 84.6151 28.4009 84.9626 28.4009C85.3101 28.4009 85.662 28.4188 86.0205 28.4523C86.3763 28.4852 86.7296 28.5412 87.0784 28.6198C87.4068 28.692 87.7201 28.8219 88.0043 29.0038C88.2787 29.1806 88.5054 29.4239 88.6641 29.7117C88.8415 30.0603 88.9272 30.4495 88.9127 30.8416C88.9015 31.2766 88.7892 31.7028 88.585 32.0854C88.3666 32.5094 88.0605 32.8804 87.6876 33.1729C87.2502 33.5103 86.7582 33.768 86.2338 33.9343C85.5933 34.1367 84.9251 34.2339 84.2544 34.2224C83.6192 34.2336 82.9851 34.1631 82.3673 34.0125C81.9015 33.9006 81.4561 33.7144 81.0477 33.4609C80.7299 33.2659 80.4635 32.9954 80.2713 32.6727C80.1083 32.3902 80.0218 32.0689 80.0206 31.7415C80.0111 31.352 80.1452 30.9729 80.3967 30.6786C80.6812 30.3728 81.0355 30.1427 81.4282 30.0087C81.2217 29.8728 81.0498 29.6891 80.9268 29.4728C80.7923 29.2186 80.727 28.9326 80.7376 28.6443C80.7387 28.4925 80.7631 28.3418 80.8102 28.1977C80.8585 28.0375 80.9329 27.8865 81.0301 27.7511C81.1399 27.5955 81.2693 27.4551 81.415 27.3336C81.5887 27.1874 81.7811 27.0657 81.9869 26.9718C81.5244 26.7308 81.1306 26.3732 80.8432 25.9335C80.592 25.5179 80.4491 25.0442 80.4279 24.5571C80.4068 24.0699 80.5081 23.5853 80.7222 23.1489C80.9194 22.7705 81.1965 22.4411 81.5338 22.1842C81.8997 21.9077 82.3117 21.7004 82.75 21.5724C83.2385 21.4269 83.7453 21.3547 84.2544 21.358ZM86.3196 31.2971C86.3229 31.2285 86.3121 31.1599 86.2879 31.0957C86.2636 31.0315 86.2265 30.9731 86.1789 30.9242C86.0717 30.8219 85.9431 30.7455 85.8028 30.7009C85.6222 30.6401 85.4356 30.5997 85.2463 30.5803C85.0185 30.5545 84.7894 30.5418 84.5601 30.5424H83.7969C83.5348 30.542 83.2733 30.5159 83.0162 30.4642C82.8545 30.5762 82.7112 30.7133 82.5917 30.8706C82.4814 31.0157 82.4225 31.1943 82.4245 31.3775C82.4229 31.5049 82.4523 31.6308 82.5103 31.7437C82.5809 31.8664 82.6858 31.9651 82.8116 32.0273C82.9942 32.1186 83.1892 32.1818 83.3901 32.2149C83.694 32.2644 84.0016 32.2868 84.3094 32.2819C84.6401 32.2875 84.9706 32.2628 85.2969 32.2082C85.511 32.1736 85.7182 32.1042 85.9105 32.0028C86.045 31.9339 86.156 31.8258 86.2294 31.6924C86.289 31.5694 86.3198 31.4342 86.3196 31.2971ZM84.2544 25.7503C84.7163 25.7503 85.0484 25.6342 85.2551 25.3998C85.468 25.1485 85.5789 24.8244 85.5652 24.4932C85.5812 24.1657 85.4698 23.8449 85.2551 23.6C85.0484 23.3767 84.7163 23.2717 84.2544 23.2717C83.7925 23.2717 83.4604 23.3811 83.2537 23.6C83.0406 23.8457 82.9301 24.1661 82.9458 24.4932C82.9435 24.6629 82.9688 24.8319 83.0206 24.9934C83.0698 25.1426 83.1518 25.2785 83.2603 25.3908C83.3746 25.5087 83.5137 25.5988 83.6672 25.6543C83.8554 25.7227 84.0545 25.7552 84.2544 25.7503Z" fill="#005CB9"/>
<path d="M93.4632 21.378C94.1211 21.3691 94.775 21.4834 95.3921 21.7151C95.9522 21.9256 96.462 22.2544 96.8876 22.6798C97.3116 23.114 97.6412 23.6335 97.8554 24.2049C98.0929 24.8471 98.21 25.5288 98.2007 26.2147C98.211 26.9094 98.094 27.6 97.8554 28.2512C97.6425 28.8278 97.3128 29.3527 96.8876 29.7919C96.4618 30.2193 95.9523 30.551 95.3921 30.7655C94.7755 30.9998 94.1215 31.1157 93.4632 31.1072C92.8006 31.1161 92.1422 31.0002 91.5212 30.7655C90.9573 30.5506 90.4435 30.2191 90.0124 29.7919C89.5824 29.3549 89.2494 28.8296 89.0359 28.2512C88.7973 27.6 88.6802 26.9094 88.6906 26.2147C88.6813 25.5288 88.7984 24.8471 89.0359 24.2049C89.2507 23.6317 89.5836 23.1118 90.0124 22.6798C90.4433 22.2546 90.9573 21.926 91.5212 21.7151C92.1427 21.4831 92.801 21.3688 93.4632 21.378ZM93.4632 29.0215C93.7374 29.0412 94.012 28.9881 94.2599 28.8675C94.5078 28.747 94.7206 28.563 94.8774 28.3338C95.178 27.8738 95.329 27.1763 95.3305 26.2414C95.332 25.3066 95.1809 24.6114 94.8774 24.1558C94.5739 23.7003 94.1025 23.4725 93.4632 23.4725C92.8239 23.4725 92.3423 23.7003 92.0182 24.1558C91.7132 24.6114 91.5608 25.3066 91.5608 26.2414C91.5608 27.1763 91.7132 27.8738 92.0182 28.3338C92.3232 28.7923 92.8049 29.0215 93.4632 29.0215Z" fill="#005CB9"/>
<path d="M104.541 23.5911C104.488 23.689 104.412 23.7731 104.322 23.8367C104.227 23.8892 104.119 23.9147 104.011 23.9104C103.876 23.9096 103.741 23.88 103.618 23.8233L103.191 23.6357C103.022 23.565 102.849 23.5032 102.674 23.4504C102.46 23.3888 102.237 23.3595 102.014 23.3633C101.729 23.3455 101.446 23.4173 101.203 23.5687C101.113 23.6324 101.04 23.7179 100.991 23.8173C100.942 23.9167 100.918 24.027 100.921 24.1381C100.918 24.2216 100.933 24.3047 100.964 24.3818C100.996 24.4589 101.043 24.5282 101.104 24.5847C101.249 24.7135 101.415 24.8162 101.594 24.8884C101.82 24.9854 102.05 25.0696 102.285 25.1408C102.542 25.2189 102.804 25.306 103.074 25.4043C103.345 25.5009 103.608 25.615 103.864 25.7459C104.116 25.8716 104.349 26.0341 104.555 26.2282C104.762 26.4251 104.928 26.662 105.043 26.9249C105.173 27.2359 105.236 27.5718 105.228 27.9097C105.232 28.3535 105.147 28.7936 104.977 29.2026C104.809 29.5978 104.552 29.9473 104.227 30.2231C103.865 30.5269 103.447 30.7546 102.997 30.893C102.452 31.0596 101.884 31.1395 101.315 31.1297C100.996 31.1291 100.678 31.0985 100.365 31.0381C100.053 30.9792 99.7456 30.8971 99.4455 30.7925C99.1608 30.6954 98.8855 30.5721 98.6229 30.4241C98.3918 30.2947 98.175 30.1405 97.9763 29.9641L98.6229 28.9257C98.6951 28.8108 98.7902 28.7127 98.9022 28.6376C99.0297 28.563 99.1753 28.5266 99.3223 28.5327C99.4759 28.5296 99.6275 28.5673 99.7622 28.6421L100.18 28.8788C100.348 28.9727 100.524 29.0519 100.706 29.1155C100.95 29.1955 101.206 29.2325 101.462 29.2249C101.647 29.2289 101.831 29.2063 102.01 29.1579C102.141 29.1208 102.264 29.057 102.371 28.9704C102.452 28.901 102.517 28.8145 102.562 28.7169C102.607 28.6194 102.63 28.5131 102.63 28.4054C102.632 28.3189 102.617 28.2328 102.584 28.1528C102.552 28.0728 102.503 28.0006 102.441 27.9409C102.296 27.8079 102.129 27.7013 101.948 27.6261C101.722 27.5306 101.49 27.4486 101.253 27.3805C100.992 27.3045 100.728 27.2175 100.459 27.1214C100.187 27.0223 99.9208 26.9052 99.6632 26.7709C99.406 26.6357 99.1714 26.4601 98.9682 26.2506C98.7568 26.0283 98.5896 25.7667 98.4756 25.4802C98.3412 25.1296 98.2769 24.7554 98.2864 24.3793C98.2823 23.987 98.3572 23.5979 98.5064 23.236C98.6631 22.8707 98.8974 22.5451 99.1926 22.2825C99.5304 21.9915 99.9212 21.7707 100.343 21.6327C100.864 21.4625 101.41 21.381 101.957 21.3915C102.593 21.3869 103.223 21.5043 103.816 21.7376C104.079 21.8402 104.331 21.9696 104.568 22.124C104.785 22.2647 104.987 22.4278 105.17 22.6108L104.541 23.5911Z" fill="#005CB9"/>
<defs>
<linearGradient id="paint0_linear_2149_202" x1="9.57248" y1="20.9918" x2="46.7375" y2="20.9918" gradientUnits="userSpaceOnUse">
<stop stop-color="#8AD6F7"/>
<stop offset="0.15" stop-color="#7CC9EE"/>
<stop offset="0.44" stop-color="#57A8D7"/>
<stop offset="0.84" stop-color="#1B72B1"/>
<stop offset="1" stop-color="#005AA0"/>
</linearGradient>
<linearGradient id="paint1_linear_2149_202" x1="0.220788" y1="29.6871" x2="19.7776" y2="29.6871" gradientUnits="userSpaceOnUse">
<stop stop-color="#CE202F"/>
<stop offset="0.17" stop-color="#CF2333"/>
<stop offset="0.33" stop-color="#D22D3E"/>
<stop offset="0.48" stop-color="#D63E50"/>
<stop offset="0.63" stop-color="#DC566A"/>
<stop offset="0.77" stop-color="#E5758B"/>
<stop offset="0.91" stop-color="#EE9AB3"/>
<stop offset="1" stop-color="#F6B7D2"/>
</linearGradient>
<linearGradient id="paint2_linear_2149_202" x1="10.1027" y1="24.817" x2="23.785" y2="24.817" gradientUnits="userSpaceOnUse">
<stop stop-color="#72305E"/>
<stop offset="0.21" stop-color="#713262"/>
<stop offset="0.4" stop-color="#6C3A6C"/>
<stop offset="0.59" stop-color="#65467F"/>
<stop offset="0.76" stop-color="#5B5799"/>
<stop offset="0.94" stop-color="#4E6DBA"/>
<stop offset="1" stop-color="#4877C8"/>
</linearGradient>
</defs>
</svg>
