<?xml version="1.0" encoding="UTF-8"?><svg id="Capa_1" xmlns="http://www.w3.org/2000/svg" viewBox="0 0 381.09 128.6"><defs><style>.cls-1{fill:#c8d532;}.cls-2{fill:#17224a;}</style></defs><path class="cls-1" d="M123.74,0H4.87C2.18,0,0,2.18,0,4.87V123.74c0,2.69,2.18,4.87,4.87,4.87H123.74c2.69,0,4.87-2.18,4.87-4.87V4.87c0-2.69-2.18-4.87-4.87-4.87"/><path class="cls-2" d="M110.27,56.5c-.92,0-1.84-.29-2.63-.9L64.3,21.93,20.96,55.6c-1.87,1.45-4.56,1.11-6.02-.76-1.45-1.87-1.11-4.56,.76-6.02L61.67,13.12c1.55-1.2,3.71-1.2,5.26,0l45.97,35.71c1.87,1.45,2.21,4.15,.76,6.02-.85,1.09-2.11,1.66-3.39,1.66"/><path class="cls-2" d="M35.04,85.17c0-17.2,12.09-28.65,30.19-28.65,13.11,0,26.54,5.76,28.33,23.92h-16.88c-1.47-5.88-5.63-8.63-11.45-8.63-7.03,0-12.6,5.24-12.6,13.37s5.56,13.37,12.6,13.37c5.82,0,9.98-2.75,11.45-8.76h16.88c-1.79,18.29-15.09,24.05-28.33,24.05-18.1,0-30.19-11.45-30.19-28.65"/><path class="cls-2" d="M151.3,98.15c0-7.29,5.07-11.96,12.81-11.96,5.85,0,11.82,2.54,12.33,10.78h-8.33c-.4-2.19-1.82-3.23-4-3.23s-4.08,1.63-4.08,4.4,1.84,4.4,4.08,4.4,3.6-1.07,4-3.31h8.33c-.51,8.3-6.43,10.86-12.33,10.86-7.74,0-12.81-4.7-12.81-11.96"/><path class="cls-2" d="M177.63,98.15c0-7.29,4.99-11.96,12.97-11.96s12.95,4.67,12.95,11.96-4.99,11.96-12.95,11.96-12.97-4.7-12.97-11.96m17.22,0c0-2.99-2.03-4.4-4.24-4.4s-4.24,1.42-4.24,4.4,2,4.4,4.24,4.4,4.24-1.44,4.24-4.4"/><polygon class="cls-2" points="204.74 86.94 214.78 86.94 220.25 97.09 221.03 97.09 221.03 86.94 229.57 86.94 229.57 109.36 219.77 109.36 214.09 99.22 213.28 99.22 213.28 109.36 204.74 109.36 204.74 86.94"/><path class="cls-2" d="M230.63,101.49h7.87c0,1.12,.99,1.79,3.87,1.81,2.4,.05,3.31-.51,3.31-1.07,0-.16,.19-.91-1.68-1.12l-2.96-.45c-4.24-.64-9.93-.75-9.93-7.05,0-4.56,3.63-7.42,11.32-7.42,6.83,0,11.58,1.6,11.34,8.57h-7.82c-.21-1.12-1.25-1.79-3.71-1.79-2.08,0-2.7,.56-2.7,1.09,0,.16-.05,.88,1.25,1.04l2.35,.37c4.56,.75,11.26,.48,11.26,7.13,0,5.18-3.9,7.55-12.04,7.5-8.36-.03-12.04-2.43-11.74-8.62"/><polygon class="cls-2" points="279.37 94.23 271.52 94.23 271.52 109.36 262.76 109.36 262.76 94.23 254.92 94.23 254.92 86.94 279.37 86.94 279.37 94.23"/><path class="cls-2" d="M296.74,109.36l-2.62-5.21h-4.51v5.21h-8.78v-22.42h13.56c6.35,0,10.06,2.56,10.06,8.92,0,2.91-1.23,4.99-2.91,6.33l3.79,7.18h-8.59Zm-7.13-11.69h4.11c1.33,0,1.92-.69,1.92-1.73s-.59-1.73-1.92-1.73h-4.11v3.47Z"/><path class="cls-2" d="M306.46,99.3v-12.36h8.84v12.14c0,2.24,.85,3.68,3.31,3.68s3.39-1.44,3.39-3.68v-12.14h8.76v12.28c0,7.58-3.9,10.89-12.15,10.89s-12.14-3.31-12.14-10.81"/><polygon class="cls-1" points="349.25 102.56 349.25 109.36 340.5 109.36 340.5 102.48 331.4 86.94 340.58 86.94 344.58 94.31 345.2 94.31 349.23 86.94 358.38 86.94 349.25 102.56"/><path class="cls-1" d="M371.32,106.94h-8.62l-.75,2.43h-9.05l7.95-22.42h12.28l7.95,22.42h-9.05l-.72-2.43Zm-.53-21.33h-7.71l1.95-4.88h7.71l-1.95,4.88Zm-1.41,14.89l-1.63-5.36h-1.47l-1.63,5.36h4.73Z"/></svg>